<svg version="1.0" xmlns="http://www.w3.org/2000/svg"
 width="32px" height="32px" viewBox="0 0 1273.000000 1280.000000"
 preserveAspectRatio="xMidYMid meet">
<metadata>
Created by potrace 1.15, written by Peter Selinger 2001-2017
</metadata>
<g><animateTransform
      attributeName="transform"
      type="rotate"
      from="0 640 640"
      to="360 640 640"
      dur="3.14s"
      repeatCount="indefinite"
    />
<g transform="translate(0.000000,1280.000000) scale(0.100000,-0.100000)"
fill="green" stroke="red" stroke-width="50">
<path d="M6102 12345 c-144 -250 -262 -457 -262 -460 0 -3 236 -5 525 -5 289
0 525 2 525 6 0 4 -517 904 -524 911 -1 1 -120 -202 -264 -452z"/>
<path d="M4876 12173 c-88 -269 -161 -495 -163 -504 -4 -13 19 -11 149 17 84
19 315 68 513 110 198 42 361 77 362 78 2 2 -642 723 -691 774 -10 10 -45 -88
-170 -475z"/>
<path d="M7365 12294 c-182 -202 -340 -379 -352 -394 l-22 -27 297 -63 c163
-34 395 -84 515 -110 119 -25 217 -45 217 -42 0 5 -321 996 -324 999 -1 1
-150 -162 -331 -363z"/>
<path d="M3760 12228 c-1 -7 -25 -240 -54 -518 -30 -278 -52 -507 -51 -508 6
-6 946 415 948 424 2 8 -821 613 -835 614 -5 0 -8 -6 -8 -12z"/>
<path d="M8540 11937 c-228 -166 -414 -306 -413 -311 2 -9 942 -430 948 -424
1 1 -21 230 -51 508 -29 278 -53 511 -54 518 0 6 -3 12 -7 12 -5 -1 -195 -137
-423 -303z"/>
<path d="M5766 11819 c-81 -178 -345 -773 -343 -775 4 -3 887 92 891 97 3 2
-108 160 -246 349 -137 190 -256 354 -264 364 -13 18 -15 16 -38 -35z"/>
<path d="M6673 11507 c-144 -199 -260 -363 -257 -366 4 -4 886 -100 891 -97 3
3 -358 810 -365 818 -4 3 -125 -156 -269 -355z"/>
<path d="M4571 11194 c-51 -239 -91 -438 -88 -440 3 -3 173 49 379 116 205 67
395 128 421 137 26 8 47 19 45 24 -3 8 -655 599 -661 599 -2 0 -45 -196 -96
-436z"/>
<path d="M7730 11334 c-179 -162 -326 -299 -328 -303 -2 -5 19 -16 45 -24 26
-9 216 -70 421 -137 206 -67 376 -119 379 -116 7 6 -178 876 -186 875 -3 0
-152 -133 -331 -295z"/>
<path d="M2606 11548 c2 -13 27 -246 55 -518 28 -272 53 -496 54 -498 2 -2
193 135 425 303 232 169 418 311 413 316 -10 10 -929 419 -942 419 -4 0 -7
-10 -5 -22z"/>
<path d="M9645 11364 c-253 -113 -464 -209 -468 -213 -5 -5 181 -147 413 -316
232 -168 423 -305 425 -303 1 2 26 226 54 498 28 272 53 505 55 518 2 12 -2
22 -8 21 -6 0 -218 -92 -471 -205z"/>
<path d="M3610 10711 c0 -248 2 -451 4 -451 3 0 181 102 396 226 328 190 389
229 374 237 -11 6 -181 104 -380 218 -198 115 -368 211 -377 215 -16 6 -17
-26 -17 -445z"/>
<path d="M9020 11111 c-47 -27 -221 -128 -388 -224 l-303 -175 391 -226 c215
-124 393 -226 396 -226 2 0 4 203 4 450 0 248 -3 450 -7 450 -5 0 -46 -22 -93
-49z"/>
<path d="M6174 10804 c-104 -180 -190 -331 -192 -336 -2 -4 170 -8 383 -8 213
0 385 4 383 8 -6 15 -371 647 -378 655 -4 4 -92 -139 -196 -319z"/>
<path d="M5375 11008 c-3 -8 -57 -171 -120 -363 -73 -226 -109 -351 -102 -352
17 -4 733 151 738 159 4 6 -460 528 -495 557 -13 11 -17 11 -21 -1z"/>
<path d="M7090 10742 c-139 -154 -251 -284 -250 -289 3 -8 716 -164 737 -160
11 2 -209 701 -227 720 -4 5 -121 -117 -260 -271z"/>
<path d="M4435 10678 c-14 -103 -76 -721 -72 -724 3 -3 696 302 704 310 3 2
-582 431 -613 449 -9 5 -14 -4 -19 -35z"/>
<path d="M7972 10493 c-172 -124 -311 -228 -309 -229 8 -8 701 -313 704 -310
5 4 -74 757 -80 762 -2 2 -144 -98 -315 -223z"/>
<path d="M1614 10665 c3 -10 76 -234 162 -499 86 -264 158 -482 159 -484 4 -4
696 764 698 775 1 4 -213 54 -476 109 -605 129 -551 119 -543 99z"/>
<path d="M10595 10572 c-275 -59 -499 -111 -498 -115 2 -11 694 -779 698 -775
1 2 73 220 159 484 86 265 159 489 162 498 4 10 1 16 -7 15 -8 0 -239 -49
-514 -107z"/>
<path d="M2711 10353 c16 -76 57 -266 90 -423 68 -322 68 -322 79 -318 22 9
659 593 653 599 -7 6 -127 45 -718 236 -60 20 -115 38 -122 40 -7 3 -1 -44 18
-134z"/>
<path d="M9930 10453 c-58 -19 -244 -80 -415 -135 -170 -55 -313 -103 -318
-107 -6 -7 631 -591 653 -599 11 -4 11 -5 79 318 33 157 74 347 90 423 16 75
26 137 22 136 -3 0 -53 -17 -111 -36z"/>
<path d="M5808 10152 c-70 -158 -130 -294 -133 -302 -5 -14 39 -11 322 18 181
19 330 36 331 38 5 3 -381 534 -388 534 -3 0 -62 -129 -132 -288z"/>
<path d="M6591 10174 c-106 -146 -191 -267 -189 -268 1 -2 150 -19 331 -38
283 -29 327 -32 322 -18 -19 52 -261 590 -266 590 -3 0 -92 -120 -198 -266z"/>
<path d="M5037 9943 c-37 -174 -65 -318 -63 -321 3 -2 119 33 258 78 139 45
276 89 303 97 28 8 54 18 58 22 8 8 -465 441 -481 441 -4 0 -38 -142 -75 -317z"/>
<path d="M7370 10045 c-129 -117 -234 -217 -232 -221 1 -5 19 -14 40 -21 20
-6 158 -51 305 -99 147 -48 270 -85 272 -82 9 9 -129 638 -140 637 -5 0 -116
-96 -245 -214z"/>
<path d="M3586 10198 c8 -56 74 -699 74 -720 0 -13 5 -18 14 -15 19 7 610 437
613 445 2 4 -154 76 -345 161 -191 85 -350 156 -354 158 -4 2 -5 -11 -2 -29z"/>
<path d="M8792 10072 c-193 -86 -351 -160 -349 -164 3 -8 594 -438 613 -445
10 -4 14 3 15 23 0 16 17 189 38 384 21 195 38 356 37 357 -1 1 -160 -69 -354
-155z"/>
<path d="M4330 9590 c0 -224 3 -331 10 -328 35 11 567 324 562 330 -8 8 -540
318 -559 325 -10 4 -13 -65 -13 -327z"/>
<path d="M8110 9759 c-151 -88 -278 -163 -282 -167 -5 -6 527 -319 562 -330 7
-3 10 104 10 327 0 182 -3 331 -7 331 -5 -1 -132 -73 -283 -161z"/>
<path d="M6224 9658 c-76 -133 -140 -245 -142 -250 -2 -4 125 -8 282 -8 157 0
286 2 286 4 0 4 -279 488 -284 493 -1 1 -65 -106 -142 -239z"/>
<path d="M5548 9553 c-47 -148 -82 -269 -77 -271 8 -3 540 107 547 114 4 3
-370 422 -378 423 -3 1 -44 -119 -92 -266z"/>
<path d="M6897 9608 c-104 -115 -187 -211 -185 -212 7 -7 539 -117 547 -114 9
3 -159 539 -169 537 -3 0 -90 -95 -193 -211z"/>
<path d="M1920 9624 c0 -10 351 -798 359 -807 4 -4 125 155 270 354 144 198
260 363 257 366 -5 6 -803 92 -853 93 -18 0 -33 -3 -33 -6z"/>
<path d="M10322 9585 c-216 -24 -396 -45 -398 -48 -3 -3 113 -168 257 -366
145 -199 266 -358 270 -354 8 9 359 797 359 807 0 11 -91 4 -488 -39z"/>
<path d="M830 9593 c0 -10 514 -902 520 -903 4 0 205 343 503 862 l27 48 -525
0 c-289 0 -525 -3 -525 -7z"/>
<path d="M10862 9578 c8 -13 126 -218 263 -455 138 -238 252 -433 255 -433 6
1 520 894 520 903 0 4 -237 7 -526 7 l-526 0 14 -22z"/>
<path d="M4940 9583 c0 -5 -13 -129 -29 -278 -16 -148 -27 -272 -25 -274 5 -5
514 222 514 229 0 6 -445 330 -454 330 -3 0 -6 -3 -6 -7z"/>
<path d="M7555 9429 c-121 -88 -221 -163 -223 -167 -2 -8 506 -237 512 -231 2
2 -9 126 -25 274 -16 149 -29 273 -29 278 0 4 -3 7 -7 7 -5 -1 -107 -73 -228
-161z"/>
<path d="M2850 9563 c0 -12 233 -719 239 -725 3 -4 123 122 265 279 142 158
254 288 250 290 -5 1 -160 34 -344 73 -184 39 -352 75 -372 80 -21 4 -38 6
-38 3z"/>
<path d="M9510 9489 c-201 -43 -371 -80 -379 -81 -8 -2 94 -123 245 -290 142
-158 262 -284 265 -280 9 9 242 723 237 727 -2 1 -167 -33 -368 -76z"/>
<path d="M3646 9403 c3 -10 33 -155 68 -321 36 -167 66 -305 68 -307 3 -3 423
369 491 435 5 4 -29 20 -75 35 -45 14 -185 60 -310 101 -125 41 -232 74 -237
74 -5 0 -7 -8 -5 -17z"/>
<path d="M8900 9365 c-91 -30 -230 -76 -309 -101 -78 -25 -139 -50 -135 -54
63 -60 489 -438 492 -436 1 2 32 140 67 307 36 167 67 312 69 322 2 9 -1 17
-7 17 -7 -1 -86 -25 -177 -55z"/>
<path d="M6046 9381 c-15 -23 -195 -435 -192 -438 3 -4 479 46 483 51 2 2
-263 373 -282 394 -2 2 -6 -1 -9 -7z"/>
<path d="M6533 9193 c-79 -108 -142 -198 -140 -199 4 -5 480 -54 483 -51 4 4
-184 429 -194 439 -4 4 -71 -82 -149 -189z"/>
<path d="M5383 9023 c-28 -131 -49 -239 -48 -241 4 -4 447 139 457 148 6 4
-331 318 -352 328 -3 1 -29 -105 -57 -235z"/>
<path d="M7113 9102 c-94 -86 -172 -161 -173 -166 -1 -9 449 -161 455 -154 5
5 -98 478 -104 477 -3 0 -83 -71 -178 -157z"/>
<path d="M4311 9207 c1 -44 55 -537 60 -541 7 -6 449 318 448 329 0 6 -107 58
-238 116 -299 133 -271 123 -270 96z"/>
<path d="M8161 9116 c-139 -62 -252 -116 -252 -122 1 -5 101 -82 224 -171 180
-130 223 -158 229 -145 8 20 61 542 56 547 -2 2 -117 -47 -257 -109z"/>
<path d="M4860 8754 l0 -246 23 14 c12 8 106 63 210 123 103 59 187 110 187
114 0 6 -402 241 -414 241 -3 0 -6 -111 -6 -246z"/>
<path d="M7653 8882 c-112 -64 -203 -120 -203 -123 0 -4 84 -55 188 -114 103
-60 197 -115 210 -123 l22 -14 0 246 c0 135 -3 246 -7 246 -5 0 -99 -53 -210
-118z"/>
<path d="M6304 8884 c-31 -55 -79 -136 -105 -181 l-48 -83 214 0 213 0 -99
173 c-55 94 -104 176 -109 181 -4 4 -34 -36 -66 -90z"/>
<path d="M5762 8734 c-35 -108 -61 -198 -59 -201 4 -4 398 76 405 82 2 2 -277
315 -281 315 -1 0 -30 -88 -65 -196z"/>
<path d="M6762 8775 c-79 -87 -141 -159 -140 -160 7 -6 401 -86 405 -82 2 3
-24 94 -59 202 l-64 198 -142 -158z"/>
<path d="M3207 8488 c75 -167 136 -304 137 -305 1 -2 91 119 199 267 176 242
194 270 174 274 -25 5 -605 66 -629 66 -11 0 22 -83 119 -302z"/>
<path d="M9290 8755 c-162 -19 -296 -34 -297 -34 -1 -1 86 -122 194 -271 108
-148 198 -269 199 -267 1 1 62 138 137 305 l134 302 -36 -1 c-20 -1 -169 -16
-331 -34z"/>
<path d="M2270 8765 c0 -4 376 -662 385 -673 3 -4 379 648 383 665 3 11 -65
13 -382 13 -212 0 -386 -2 -386 -5z"/>
<path d="M9692 8757 c4 -17 380 -669 383 -665 9 11 385 669 385 673 0 3 -174
5 -386 5 -317 0 -385 -2 -382 -13z"/>
<path d="M5310 8751 c0 -4 -9 -93 -21 -196 -11 -103 -19 -193 -17 -200 3 -13
369 145 371 160 0 9 -311 243 -325 244 -5 1 -8 -3 -8 -8z"/>
<path d="M7246 8642 c-88 -65 -159 -122 -159 -127 2 -15 368 -173 371 -160 2
7 -6 97 -17 200 -12 103 -21 192 -21 196 0 17 -16 7 -174 -109z"/>
<path d="M3770 8731 c0 -14 166 -520 172 -527 6 -5 378 402 378 414 0 4 -116
31 -257 61 -142 30 -266 56 -275 59 -10 2 -18 -1 -18 -7z"/>
<path d="M8673 8681 c-145 -31 -263 -59 -263 -63 0 -12 372 -419 378 -414 6 7
172 513 172 526 0 14 7 15 -287 -49z"/>
<path d="M1765 8685 c-214 -23 -398 -44 -408 -46 -13 -3 40 -83 245 -366 145
-200 265 -363 268 -363 4 0 173 374 344 763 l26 57 -43 -1 c-23 -1 -217 -21
-432 -44z"/>
<path d="M10516 8673 c173 -394 340 -763 344 -763 7 0 530 723 526 727 -3 4
-842 93 -873 93 l-23 0 26 -57z"/>
<path d="M4356 8613 c2 -10 25 -115 49 -233 25 -117 48 -216 50 -219 3 -2 18
7 33 20 15 14 96 88 181 165 l154 139 -224 72 c-123 40 -229 73 -236 73 -6 0
-9 -8 -7 -17z"/>
<path d="M8126 8556 l-219 -71 154 -139 c85 -77 166 -151 181 -165 15 -13 30
-22 33 -20 2 3 25 102 50 219 24 118 47 223 49 233 3 11 -2 17 -12 16 -10 0
-116 -33 -236 -73z"/>
<path d="M6105 8554 c-14 -32 -47 -105 -72 -162 -25 -56 -44 -105 -41 -107 7
-7 348 29 348 37 0 7 -179 258 -201 282 -4 5 -20 -18 -34 -50z"/>
<path d="M6492 8469 c-56 -77 -102 -143 -102 -147 0 -8 341 -44 348 -37 5 4
-125 304 -137 317 -4 5 -53 -55 -109 -133z"/>
<path d="M805 8490 c-275 -58 -506 -108 -512 -111 -11 -4 673 -777 689 -778 4
-1 29 68 57 152 184 564 272 839 269 841 -2 2 -228 -45 -503 -104z"/>
<path d="M11420 8592 c0 -4 127 -396 271 -839 28 -84 53 -153 57 -152 8 1 702
772 698 776 -1 2 -216 48 -477 103 -261 56 -491 105 -511 109 -21 5 -38 6 -38
3z"/>
<path d="M5638 8338 c-20 -95 -35 -174 -34 -175 1 -2 80 22 174 53 l173 55
-53 48 c-137 124 -213 191 -218 191 -3 0 -22 -78 -42 -172z"/>
<path d="M6965 8438 c-44 -39 -104 -93 -133 -119 l-53 -48 173 -55 c94 -31
173 -55 174 -53 4 4 -71 347 -76 347 -3 0 -41 -32 -85 -72z"/>
<path d="M4862 8313 c10 -98 20 -192 23 -210 l6 -32 169 122 c93 67 169 124
169 127 0 5 -369 170 -380 170 -3 0 3 -80 13 -177z"/>
<path d="M7683 8407 c-100 -45 -182 -84 -182 -87 0 -3 76 -60 169 -127 l169
-122 6 32 c18 107 40 387 31 386 -6 -1 -93 -38 -193 -82z"/>
<path d="M5250 8139 l0 -181 23 14 c12 8 84 50 159 93 76 44 136 80 135 81
-10 9 -302 174 -309 174 -4 0 -8 -82 -8 -181z"/>
<path d="M7320 8238 c-74 -43 -141 -82 -147 -86 -8 -5 38 -37 125 -87 75 -43
147 -85 160 -93 l22 -14 0 181 c0 139 -3 181 -12 180 -7 -1 -74 -37 -148 -81z"/>
<path d="M6288 8183 c-40 -70 -74 -131 -76 -135 -2 -4 67 -8 153 -8 86 0 155
4 153 8 -8 19 -150 262 -153 262 -2 0 -36 -57 -77 -127z"/>
<path d="M5922 8137 c-23 -73 -44 -141 -47 -149 -6 -14 8 -13 102 8 59 13 127
27 151 30 23 4 42 10 42 15 0 6 -198 229 -204 229 -1 0 -21 -60 -44 -133z"/>
<path d="M6662 8161 c-56 -62 -102 -117 -102 -122 0 -5 10 -9 23 -10 12 0 78
-13 147 -28 69 -16 126 -28 127 -27 1 1 -19 69 -45 150 l-48 149 -102 -112z"/>
<path d="M3937 8154 c22 -59 189 -422 195 -425 7 -4 292 381 286 387 -2 1 -93
12 -203 24 -110 11 -219 23 -243 26 -38 6 -42 4 -35 -12z"/>
<path d="M8535 8143 c-120 -13 -221 -25 -223 -27 -6 -6 279 -391 286 -387 6 3
172 366 195 424 8 21 24 21 -258 -10z"/>
<path d="M3340 8145 c0 -3 64 -116 142 -251 118 -206 143 -243 151 -227 6 10
69 119 140 243 71 124 132 228 134 233 2 4 -124 7 -281 7 -157 0 -286 -2 -286
-5z"/>
<path d="M8823 8143 c2 -5 63 -109 134 -233 71 -124 134 -233 140 -243 8 -16
33 21 151 227 78 135 142 248 142 251 0 3 -129 5 -286 5 -157 0 -283 -3 -281
-7z"/>
<path d="M5569 7990 c-8 -82 -12 -150 -8 -150 6 0 271 119 276 124 4 4 -236
176 -245 176 -5 0 -15 -67 -23 -150z"/>
<path d="M7012 8055 c-63 -46 -116 -85 -118 -88 -4 -3 265 -127 276 -127 3 0
-1 68 -9 150 -9 90 -19 150 -25 149 -6 0 -62 -38 -124 -84z"/>
<path d="M2980 8092 c-179 -19 -326 -36 -328 -37 -4 -3 378 -529 387 -533 7
-2 276 597 270 601 -2 2 -150 -12 -329 -31z"/>
<path d="M4505 7935 c35 -108 65 -199 68 -201 5 -5 277 296 277 306 0 5 -155
40 -387 88 -20 4 -18 -8 42 -193z"/>
<path d="M8068 8087 c-104 -22 -188 -43 -188 -47 0 -10 272 -311 277 -306 3 2
33 92 68 200 51 160 60 196 46 195 -9 -1 -100 -20 -203 -42z"/>
<path d="M9420 8120 c0 -15 265 -600 271 -598 9 4 391 530 387 533 -7 6 -658
70 -658 65z"/>
<path d="M4880 8041 c0 -17 69 -333 73 -338 4 -4 260 225 264 236 1 3 -68 29
-153 56 -186 60 -184 59 -184 46z"/>
<path d="M7668 7997 c-87 -29 -156 -55 -155 -58 4 -11 260 -240 264 -236 4 5
73 321 73 337 0 15 -12 12 -182 -43z"/>
<path d="M6160 7964 c-59 -130 -73 -165 -68 -169 5 -6 245 19 252 26 4 4 -120
179 -143 202 -7 7 -20 -11 -41 -59z"/>
<path d="M6457 7928 c-42 -57 -73 -105 -71 -107 7 -7 247 -32 252 -26 6 5 -89
224 -99 231 -4 2 -41 -42 -82 -98z"/>
<path d="M2360 7970 c-124 -27 -285 -62 -357 -77 -73 -15 -133 -29 -133 -32 0
-4 97 -114 216 -246 288 -320 295 -327 301 -321 3 2 58 167 123 365 110 337
116 361 96 360 -11 0 -122 -23 -246 -49z"/>
<path d="M10220 7659 c65 -198 120 -363 123 -365 6 -6 13 1 301 321 119 132
216 242 216 245 0 4 -28 12 -62 19 -35 7 -199 41 -365 77 -167 35 -309 64
-317 64 -10 0 19 -101 104 -361z"/>
<path d="M5828 7833 c-15 -70 -26 -128 -25 -129 6 -5 248 78 245 85 -3 9 -176
165 -186 169 -4 1 -20 -55 -34 -125z"/>
<path d="M6775 7878 c-49 -45 -91 -85 -93 -89 -3 -7 239 -90 245 -85 5 4 -52
256 -57 256 -3 0 -45 -37 -95 -82z"/>
<path d="M5243 7908 c4 -24 11 -94 18 -156 6 -62 15 -111 19 -110 17 7 240
172 240 178 0 4 -37 23 -82 43 -46 19 -109 47 -142 62 l-58 26 5 -43z"/>
<path d="M7348 7887 c-76 -33 -138 -63 -138 -67 0 -7 241 -183 245 -178 4 4
36 300 33 303 -2 2 -65 -25 -140 -58z"/>
<path d="M1655 7765 c-88 -30 -274 -91 -413 -136 -139 -45 -251 -85 -250 -89
5 -12 660 -601 664 -597 5 5 184 846 184 863 0 20 -8 18 -185 -41z"/>
<path d="M5540 7690 c0 -71 2 -130 5 -130 9 0 225 125 225 130 0 6 -213 130
-223 130 -4 0 -7 -58 -7 -130z"/>
<path d="M7068 7757 c-59 -34 -108 -64 -108 -67 0 -5 216 -130 225 -130 3 0 5
59 5 130 0 72 -3 130 -7 130 -5 0 -56 -28 -115 -63z"/>
<path d="M10890 7806 c0 -17 179 -858 184 -863 4 -4 660 586 664 597 2 4 -28
18 -65 30 -37 12 -226 73 -419 136 -193 63 -354 114 -357 114 -4 0 -7 -6 -7
-14z"/>
<path d="M6306 7714 c-31 -52 -56 -97 -56 -100 0 -2 52 -4 115 -4 63 0 115 2
115 4 0 7 -111 196 -115 196 -2 0 -28 -43 -59 -96z"/>
<path d="M6068 7774 c-5 -7 -35 -101 -64 -196 -3 -12 -1 -16 8 -14 7 3 57 14
111 26 53 12 97 25 97 28 -1 15 -147 164 -152 156z"/>
<path d="M6581 7700 c-40 -45 -71 -83 -69 -86 5 -4 212 -52 215 -49 4 3 -58
200 -66 208 -4 4 -40 -29 -80 -73z"/>
<path d="M4570 7703 c0 -12 130 -305 140 -316 4 -5 55 57 113 137 59 80 105
146 103 146 -8 0 -272 30 -313 36 -24 3 -43 1 -43 -3z"/>
<path d="M7975 7690 c-82 -10 -156 -19 -162 -19 -7 -1 35 -67 94 -147 58 -80
109 -142 113 -137 9 10 140 304 140 315 0 10 0 10 -185 -12z"/>
<path d="M4132 7682 c17 -45 203 -351 209 -345 4 4 52 86 107 181 l101 172
-211 0 c-115 0 -208 -4 -206 -8z"/>
<path d="M5787 7667 c-11 -46 -19 -197 -11 -197 14 0 194 82 194 89 0 5 -128
100 -166 123 -7 5 -14 0 -17 -15z"/>
<path d="M6848 7627 c-48 -34 -88 -65 -88 -68 0 -7 180 -89 194 -89 9 0 -2
173 -13 202 -5 15 -19 9 -93 -45z"/>
<path d="M8282 7518 c55 -95 103 -177 107 -181 6 -6 192 300 209 345 2 4 -91
8 -206 8 l-211 0 101 -172z"/>
<path d="M3860 7651 c-129 -13 -237 -25 -239 -27 -2 -2 61 -91 139 -199 78
-108 146 -193 150 -188 14 14 191 418 188 428 -2 7 -83 2 -238 -14z"/>
<path d="M4988 7538 c26 -78 48 -145 50 -148 4 -5 98 93 172 181 l39 46 -132
27 c-73 15 -142 30 -154 33 -21 5 -20 -1 25 -139z"/>
<path d="M7623 7648 l-143 -31 40 -46 c74 -88 168 -186 172 -181 15 20 94 290
85 289 -7 0 -76 -15 -154 -31z"/>
<path d="M8630 7666 c0 -14 178 -417 190 -429 4 -5 72 80 150 188 78 108 141
197 139 199 -2 2 -103 13 -224 25 -121 12 -228 24 -237 26 -10 1 -18 -2 -18
-9z"/>
<path d="M5291 7494 c15 -69 28 -127 30 -129 5 -5 189 163 189 172 0 7 -221
82 -241 83 -3 0 6 -57 22 -126z"/>
<path d="M7332 7581 c-62 -20 -112 -39 -112 -44 0 -9 184 -176 189 -172 11 11
56 255 47 254 -6 -1 -62 -17 -124 -38z"/>
<path d="M3310 7541 c-146 -31 -263 -61 -261 -66 4 -13 365 -415 372 -415 3 0
42 115 88 256 45 141 85 262 88 270 7 19 12 20 -287 -45z"/>
<path d="M6200 7528 c-18 -40 -35 -79 -38 -86 -4 -11 10 -13 74 -7 125 12 123
9 63 93 -29 40 -55 72 -59 72 -4 0 -22 -33 -40 -72z"/>
<path d="M6431 7528 c-60 -84 -62 -81 63 -93 64 -6 78 -4 74 7 -23 58 -72 158
-78 158 -4 0 -30 -32 -59 -72z"/>
<path d="M9133 7587 c3 -8 43 -130 88 -271 46 -141 86 -255 90 -254 17 6 377
413 371 419 -4 3 -119 30 -257 59 -137 28 -261 54 -274 57 -19 5 -23 3 -18
-10z"/>
<path d="M5986 7538 c-7 -21 -36 -156 -36 -167 0 -8 165 41 177 53 5 4 -101
106 -123 119 -9 5 -16 3 -18 -5z"/>
<path d="M6667 7494 c-36 -33 -66 -62 -66 -66 -1 -3 40 -20 89 -36 50 -17 90
-27 90 -22 0 22 -34 166 -41 174 -4 4 -36 -18 -72 -50z"/>
<path d="M5533 7526 c3 -7 9 -54 12 -105 4 -50 11 -93 15 -96 7 -4 179 116
180 125 0 6 -190 90 -204 90 -4 0 -6 -6 -3 -14z"/>
<path d="M7083 7497 c-51 -23 -93 -44 -93 -47 1 -9 173 -129 180 -125 4 3 11
46 15 96 3 51 9 98 12 105 8 21 -14 16 -114 -29z"/>
<path d="M473 7281 c-255 -113 -463 -209 -463 -212 0 -7 841 -621 845 -617 1
2 27 236 57 521 46 447 52 517 38 516 -8 -1 -223 -94 -477 -208z"/>
<path d="M11818 6973 c30 -285 56 -519 57 -521 4 -4 845 610 845 617 0 7 -930
421 -945 421 -7 0 9 -189 43 -517z"/>
<path d="M2697 7350 c-164 -54 -301 -100 -303 -103 -3 -3 106 -105 241 -227
135 -122 247 -221 249 -219 1 2 30 139 65 304 35 165 65 310 68 323 3 15 1 22
-8 21 -8 -1 -148 -45 -312 -99z"/>
<path d="M5760 7354 l0 -96 68 37 c103 57 103 57 35 97 -32 20 -68 41 -80 47
l-23 12 0 -97z"/>
<path d="M6886 7404 c-90 -53 -90 -50 17 -109 l67 -37 0 96 c0 53 -1 96 -3 96
-1 0 -38 -21 -81 -46z"/>
<path d="M9713 7428 c3 -13 33 -158 68 -323 35 -165 64 -302 65 -304 3 -4 494
438 494 444 0 4 -613 205 -625 205 -4 0 -5 -10 -2 -22z"/>
<path d="M6343 7409 c-11 -19 -30 -51 -42 -71 l-23 -38 86 0 86 0 -27 48 c-16
27 -35 59 -44 72 l-15 23 -21 -34z"/>
<path d="M6122 7348 c-12 -40 -22 -76 -22 -79 0 -6 150 20 159 27 4 4 -98 116
-110 122 -3 1 -16 -30 -27 -70z"/>
<path d="M6521 7359 c-29 -33 -52 -61 -50 -63 9 -7 159 -33 159 -27 0 16 -44
151 -49 150 -3 0 -30 -27 -60 -60z"/>
<path d="M5040 7363 c0 -5 23 -61 51 -126 l52 -117 78 107 c43 59 77 108 75
110 -2 2 -43 8 -92 13 -49 5 -106 12 -126 15 -21 3 -38 2 -38 -2z"/>
<path d="M7551 7354 c-62 -7 -115 -14 -117 -16 -2 -3 32 -52 75 -111 l78 -107
52 117 c55 127 57 134 39 132 -7 -1 -64 -7 -127 -15z"/>
<path d="M4710 7356 c0 -17 154 -266 160 -259 9 10 150 253 150 259 0 2 -70 4
-155 4 -85 0 -155 -2 -155 -4z"/>
<path d="M7710 7356 c0 -6 141 -249 150 -259 6 -7 160 242 160 259 0 2 -70 4
-155 4 -85 0 -155 -2 -155 -4z"/>
<path d="M5320 7336 c0 -5 15 -55 32 -109 l33 -99 77 83 c42 46 75 85 73 87
-11 11 -215 47 -215 38z"/>
<path d="M5936 7318 c-11 -76 -15 -128 -9 -128 13 0 143 63 143 69 -1 5 -104
82 -122 89 -4 2 -9 -12 -12 -30z"/>
<path d="M6718 7307 c-31 -23 -57 -45 -57 -48 -1 -6 129 -69 142 -69 6 0 3 51
-9 128 -3 17 -8 32 -12 31 -4 0 -33 -19 -64 -42z"/>
<path d="M7302 7324 c-57 -12 -105 -23 -107 -25 -2 -3 31 -42 73 -88 l77 -83
33 101 c19 56 32 105 30 109 -2 4 -49 -2 -106 -14z"/>
<path d="M4478 7322 c-76 -8 -138 -18 -138 -22 0 -6 183 -262 205 -288 2 -3
145 314 145 323 0 8 -61 4 -212 -13z"/>
<path d="M8040 7335 c0 -9 143 -326 145 -323 22 25 205 282 205 287 0 5 -71
15 -157 24 -170 18 -193 20 -193 12z"/>
<path d="M5554 7283 c2 -10 12 -53 21 -96 l17 -77 69 61 c38 34 69 65 69 69 0
7 -154 60 -175 60 -3 0 -4 -8 -1 -17z"/>
<path d="M7078 7273 c-43 -13 -78 -28 -78 -32 0 -5 31 -36 69 -70 l69 -61 17
77 c9 43 19 86 21 96 7 22 -2 21 -98 -10z"/>
<path d="M4113 7246 c-105 -23 -194 -44 -198 -47 -3 -4 56 -75 131 -158 75
-84 140 -148 144 -144 5 4 33 88 65 186 31 98 59 185 62 193 6 17 23 20 -204
-30z"/>
<path d="M6256 7263 c-7 -16 -21 -45 -29 -65 l-16 -37 67 6 c37 3 69 7 71 9 4
4 -68 114 -75 114 -2 0 -10 -12 -18 -27z"/>
<path d="M6415 7235 c-21 -30 -36 -57 -34 -59 2 -2 34 -6 71 -9 l67 -6 -25 57
c-14 31 -29 61 -33 65 -4 4 -25 -17 -46 -48z"/>
<path d="M8413 7277 c3 -8 31 -96 62 -194 32 -98 60 -182 65 -186 4 -4 69 60
144 144 75 84 133 155 129 159 -4 3 -89 23 -188 44 -99 21 -189 40 -199 43
-14 4 -18 1 -13 -10z"/>
<path d="M6077 7213 c-4 -21 -9 -52 -13 -70 l-6 -32 66 22 c36 11 66 24 66 27
0 7 -95 90 -103 90 -2 0 -7 -17 -10 -37z"/>
<path d="M6585 7205 c-27 -24 -48 -46 -45 -48 3 -2 34 -14 69 -25 l63 -21 -6
32 c-4 17 -9 49 -13 70 -3 20 -8 37 -12 37 -3 -1 -28 -21 -56 -45z"/>
<path d="M5755 7183 c12 -114 7 -110 76 -62 33 24 62 46 65 51 5 8 -117 68
-138 68 -6 0 -7 -22 -3 -57z"/>
<path d="M6892 7209 c-35 -16 -61 -32 -58 -37 3 -5 32 -27 65 -51 69 -48 64
-52 76 62 8 68 7 68 -83 26z"/>
<path d="M2035 7065 c-176 -79 -333 -150 -348 -157 l-28 -13 312 -228 c172
-125 314 -225 317 -223 3 4 82 723 82 754 0 6 -3 12 -7 11 -5 -1 -152 -66
-328 -144z"/>
<path d="M10360 7198 c0 -31 79 -750 82 -754 4 -3 594 421 621 445 5 6 -594
281 -694 319 -5 2 -9 -2 -9 -10z"/>
<path d="M3652 7102 l-232 -77 182 -163 c125 -112 184 -159 189 -150 8 17 102
459 97 463 -2 2 -108 -31 -236 -73z"/>
<path d="M8840 7171 c0 -16 91 -437 98 -454 6 -16 35 6 190 145 l182 163 -128
43 c-219 73 -342 110 -342 103z"/>
<path d="M5910 7105 c0 -45 4 -65 13 -65 6 0 36 15 66 34 l53 33 -55 32 c-30
17 -60 31 -66 31 -7 0 -11 -23 -11 -65z"/>
<path d="M6336 7126 c-14 -25 -26 -49 -26 -55 0 -7 23 -11 55 -11 32 0 55 4
55 11 0 10 -49 99 -55 99 -2 0 -15 -20 -29 -44z"/>
<path d="M6741 7138 l-53 -31 53 -33 c30 -19 60 -34 67 -34 8 0 12 20 12 65 0
45 -4 65 -12 65 -7 0 -37 -14 -67 -32z"/>
<path d="M6185 7099 c-9 -28 -15 -52 -12 -55 2 -2 28 1 56 7 29 6 54 9 57 7 2
-3 -3 -21 -11 -41 -8 -20 -15 -41 -15 -46 0 -8 79 -4 89 5 9 8 -127 174 -144
174 -2 0 -11 -23 -20 -51z"/>
<path d="M6464 7091 c-53 -58 -90 -109 -83 -115 10 -9 89 -13 89 -5 0 5 -7 26
-15 46 -8 20 -13 38 -11 41 3 2 28 -1 57 -7 28 -6 54 -9 56 -7 7 7 -27 106
-35 105 -4 -1 -30 -27 -58 -58z"/>
<path d="M5163 7068 c13 -24 39 -69 57 -100 17 -32 33 -58 35 -58 3 0 105 174
113 192 2 4 -49 8 -113 8 l-117 0 25 -42z"/>
<path d="M5416 7033 c20 -43 39 -82 43 -86 8 -8 111 125 111 142 0 8 -94 21
-156 21 l-33 0 35 -77z"/>
<path d="M7203 7103 c-24 -2 -43 -8 -43 -13 0 -18 103 -151 111 -143 4 4 23
43 43 86 l35 77 -52 -2 c-29 -1 -71 -3 -94 -5z"/>
<path d="M7362 7102 c8 -18 110 -192 113 -192 2 0 18 26 35 58 18 31 44 76 57
100 l25 42 -117 0 c-64 0 -115 -4 -113 -8z"/>
<path d="M4992 7085 c-62 -6 -115 -15 -118 -18 -7 -6 135 -207 146 -207 5 0
79 160 108 232 2 4 -2 7 -10 7 -7 -1 -64 -7 -126 -14z"/>
<path d="M5596 7073 c12 -48 41 -128 46 -128 8 0 111 115 107 119 -4 4 -143
36 -154 36 -3 0 -2 -12 1 -27z"/>
<path d="M6046 7069 c-3 -17 -6 -44 -6 -60 l0 -28 51 23 c27 13 51 26 52 29 2
6 -74 66 -84 67 -4 0 -9 -14 -13 -31z"/>
<path d="M6627 7071 c-21 -16 -38 -32 -38 -36 0 -4 23 -18 50 -31 l51 -23 0
28 c0 38 -11 91 -19 91 -3 0 -23 -14 -44 -29z"/>
<path d="M7050 7083 c-36 -8 -67 -17 -69 -19 -5 -4 100 -120 108 -117 6 2 33
78 45 126 7 31 8 31 -84 10z"/>
<path d="M7602 7092 c29 -73 103 -232 108 -232 10 0 153 200 147 207 -3 3 -43
9 -89 14 -46 4 -102 11 -126 14 -24 2 -42 1 -40 -3z"/>
<path d="M5767 7062 c-5 -11 24 -132 32 -132 4 0 28 22 54 48 l47 48 -65 21
c-36 12 -66 18 -68 15z"/>
<path d="M6892 7046 l-63 -21 50 -50 c28 -27 53 -47 55 -44 9 8 33 129 27 133
-3 2 -34 -6 -69 -18z"/>
<path d="M4702 7026 c-79 -17 -143 -35 -144 -39 0 -5 44 -59 98 -119 l98 -110
48 143 c26 79 47 146 46 149 -2 4 -67 -8 -146 -24z"/>
<path d="M7880 7051 c0 -4 22 -71 48 -150 l48 -143 101 113 c56 63 99 117 95
120 -10 10 -292 67 -292 60z"/>
<path d="M6151 6993 c-10 -36 -14 -63 -8 -63 1 0 23 7 50 15 51 15 53 14 36
-34 -6 -18 -9 -34 -7 -36 7 -7 78 15 78 24 0 5 -31 37 -69 70 l-70 62 -10 -38z"/>
<path d="M6497 6967 c-37 -34 -67 -65 -67 -69 0 -8 72 -29 78 -23 2 2 -1 18
-7 36 -17 48 -15 49 37 34 26 -8 49 -15 51 -15 5 0 -10 73 -17 87 -5 7 -31
-10 -75 -50z"/>
<path d="M5916 6963 c4 -32 7 -59 8 -60 1 -1 23 14 50 34 l50 36 -45 23 c-67
35 -70 33 -63 -33z"/>
<path d="M6751 6996 l-45 -23 50 -36 c27 -20 49 -35 50 -34 1 1 4 28 8 60 7
66 4 68 -63 33z"/>
<path d="M3152 6886 c-140 -62 -254 -116 -255 -120 -1 -4 99 -82 223 -172 224
-163 225 -163 232 -136 9 33 61 532 56 537 -2 2 -117 -47 -256 -109z"/>
<path d="M9320 6983 c1 -37 57 -544 61 -548 3 -2 107 71 232 162 126 91 225
169 220 173 -4 4 -107 51 -228 105 -314 139 -285 128 -285 108z"/>
<path d="M4346 6916 l-159 -52 134 -121 c73 -67 135 -120 137 -118 6 5 71 306
72 328 0 9 -6 17 -12 16 -7 -1 -85 -24 -172 -53z"/>
<path d="M6030 6919 c0 -28 3 -49 8 -47 52 25 82 43 82 50 0 7 -72 48 -85 48
-3 0 -5 -23 -5 -51z"/>
<path d="M6322 6898 l-41 -73 39 -5 c32 -4 38 -8 30 -20 -16 -26 -11 -40 15
-40 27 0 31 10 15 41 -10 17 -7 19 31 19 l41 0 -37 68 c-21 37 -41 71 -45 75
-4 5 -26 -24 -48 -65z m88 -13 c0 -3 -10 -19 -22 -36 l-22 -29 -23 27 c-12 16
-22 31 -23 36 0 4 20 7 45 7 25 0 45 -2 45 -5z"/>
<path d="M6648 6949 c-21 -11 -38 -23 -38 -27 0 -7 30 -25 83 -50 4 -2 7 19 7
47 0 28 -3 51 -7 51 -5 -1 -25 -10 -45 -21z"/>
<path d="M8200 6953 c1 -22 66 -323 72 -328 2 -2 64 51 137 118 l134 121 -164
53 c-90 29 -167 53 -171 53 -5 0 -8 -8 -8 -17z"/>
<path d="M5643 6918 c35 -85 51 -118 56 -118 11 1 81 109 74 113 -5 2 -37 8
-72 11 -51 6 -63 5 -58 -6z"/>
<path d="M7000 6921 c-25 -3 -45 -9 -45 -12 0 -9 69 -108 76 -109 5 0 20 31
56 118 6 13 -9 13 -87 3z"/>
<path d="M5353 6907 c-51 -5 -93 -12 -93 -16 0 -9 100 -145 108 -148 6 -2 85
169 80 171 -2 1 -45 -2 -95 -7z"/>
<path d="M5487 6872 c61 -107 54 -105 101 -24 l41 72 -85 0 -84 0 27 -48z"/>
<path d="M5796 6896 c18 -56 31 -91 35 -91 3 0 22 19 43 42 42 47 42 47 -37
62 -46 8 -47 8 -41 -13z"/>
<path d="M6127 6878 c-3 -24 -4 -44 -3 -46 7 -6 76 32 74 40 -2 5 -17 18 -34
29 l-31 19 -6 -42z"/>
<path d="M6563 6899 c-18 -12 -33 -24 -33 -28 0 -8 71 -44 76 -38 2 2 0 22 -4
45 l-7 41 -32 -20z"/>
<path d="M6890 6908 c-75 -13 -76 -14 -34 -61 21 -23 41 -41 43 -40 6 2 42
105 38 108 -1 1 -22 -2 -47 -7z"/>
<path d="M7142 6848 c47 -81 40 -83 101 24 l27 48 -84 0 -85 0 41 -72z"/>
<path d="M7282 6909 c33 -82 75 -168 80 -166 9 3 108 140 108 149 0 5 -12 8
-27 9 -16 0 -58 3 -96 8 -37 4 -66 4 -65 0z"/>
<path d="M5927 6859 c13 -69 14 -70 57 -33 l39 33 -27 11 c-15 5 -38 13 -51
16 -24 6 -25 4 -18 -27z"/>
<path d="M6753 6877 c-18 -7 -33 -15 -33 -20 0 -4 15 -21 34 -37 l34 -31 7 33
c4 18 9 41 11 51 6 20 -7 21 -53 4z"/>
<path d="M5120 6861 c-41 -10 -80 -19 -87 -22 -11 -3 122 -166 137 -168 5 -1
70 187 70 202 0 11 -38 7 -120 -12z"/>
<path d="M7490 6874 c0 -9 61 -196 65 -202 3 -3 66 63 124 129 l31 37 -72 16
c-107 24 -148 30 -148 20z"/>
<path d="M6030 6833 c0 -50 14 -59 50 -33 l33 23 -34 18 c-45 24 -49 24 -49
-8z"/>
<path d="M6206 6838 c-11 -43 -8 -48 20 -38 41 16 46 13 39 -21 -7 -31 -7 -31
24 -24 30 6 32 6 25 -19 -5 -23 -3 -26 21 -26 15 0 25 4 23 10 -4 14 -130 140
-139 140 -3 0 -9 -10 -13 -22z"/>
<path d="M6441 6796 c-35 -35 -72 -77 -83 -95 l-20 -31 26 0 c24 0 25 2 16 20
-9 18 -8 20 16 20 23 0 25 3 20 26 -7 25 -5 25 25 19 31 -7 31 -7 24 24 -7 34
-2 37 39 21 19 -7 26 -6 26 3 0 22 -12 57 -19 57 -4 0 -36 -29 -70 -64z"/>
<path d="M6651 6841 l-34 -18 33 -23 c36 -26 50 -17 50 33 0 32 -4 32 -49 8z"/>
<path d="M1253 6627 c-211 -122 -383 -224 -383 -227 0 -5 748 -440 771 -448 5
-2 9 192 9 447 0 248 -3 451 -7 450 -5 0 -180 -100 -390 -222z"/>
<path d="M11080 6399 c0 -255 4 -449 9 -447 23 8 771 443 771 448 0 5 -766
450 -775 450 -3 0 -5 -203 -5 -451z"/>
<path d="M3983 6757 c-101 -44 -183 -84 -183 -87 0 -5 287 -219 325 -242 9 -5
16 38 29 160 9 92 19 186 22 210 4 23 2 42 -2 41 -5 0 -91 -37 -191 -82z"/>
<path d="M8553 6799 c4 -24 14 -119 23 -211 13 -122 20 -165 29 -160 38 23
325 237 325 242 0 5 -295 140 -365 166 -16 6 -17 3 -12 -37z"/>
<path d="M4875 6783 c-60 -19 -112 -37 -114 -39 -4 -4 53 -57 152 -144 21 -18
40 -31 42 -28 4 4 55 229 55 243 0 10 -25 4 -135 -32z"/>
<path d="M6120 6785 c0 -40 5 -42 39 -16 l24 18 -24 17 c-33 23 -39 20 -39
-19z"/>
<path d="M6571 6804 l-24 -17 24 -18 c34 -26 39 -24 39 16 0 39 -6 42 -39 19z"/>
<path d="M7720 6815 c0 -14 51 -239 55 -243 2 -3 21 10 42 28 99 86 156 140
152 144 -6 5 -229 76 -240 76 -5 0 -9 -2 -9 -5z"/>
<path d="M5700 6783 c0 -5 13 -30 29 -56 l28 -49 32 51 c17 28 31 53 31 56 0
3 -27 5 -60 5 -33 0 -60 -3 -60 -7z"/>
<path d="M5832 6783 c2 -5 10 -25 18 -45 8 -21 17 -38 22 -38 4 0 19 17 33 38
l25 37 -22 7 c-33 9 -80 9 -76 1z"/>
<path d="M6822 6782 l-22 -7 25 -37 c14 -21 29 -38 33 -38 5 0 14 17 22 38 8
20 16 40 18 45 4 8 -43 8 -76 -1z"/>
<path d="M6910 6785 c0 -3 14 -28 31 -56 l32 -51 28 49 c16 26 29 51 29 56 0
4 -27 7 -60 7 -33 0 -60 -2 -60 -5z"/>
<path d="M5588 6773 c-21 -2 -38 -7 -38 -11 1 -15 78 -113 83 -105 3 4 17 34
30 66 l26 57 -32 -2 c-18 -1 -49 -3 -69 -5z"/>
<path d="M5952 6741 c12 -46 22 -48 52 -8 23 31 22 33 -26 42 l-36 7 10 -41z"/>
<path d="M6190 6750 c0 -29 2 -30 23 -19 32 17 32 18 11 34 -28 21 -34 18 -34
-15z"/>
<path d="M6506 6765 c-21 -16 -21 -17 12 -34 20 -11 22 -10 22 19 0 33 -6 36
-34 15z"/>
<path d="M6733 6773 c-28 -5 -29 -13 -2 -47 28 -35 35 -33 47 14 11 43 10 44
-45 33z"/>
<path d="M7066 6724 c14 -33 29 -62 32 -66 4 -4 24 18 46 48 21 30 36 57 35
59 -2 2 -34 6 -71 10 l-68 7 26 -58z"/>
<path d="M5453 6743 c-40 -9 -73 -19 -73 -24 0 -4 24 -33 53 -65 l52 -56 27
81 c14 45 23 80 20 80 -4 -1 -40 -8 -79 -16z"/>
<path d="M6041 6744 c0 -11 4 -27 8 -37 6 -16 9 -16 31 7 26 29 26 32 -13 41
-22 6 -27 4 -26 -11z"/>
<path d="M6648 6753 c-24 -6 -23 -15 6 -42 l23 -22 7 23 c12 48 8 53 -36 41z"/>
<path d="M7218 6679 l27 -81 52 56 c29 32 53 61 53 65 0 5 -28 14 -62 20 -35
7 -71 14 -80 17 -14 4 -13 -6 10 -77z"/>
<path d="M6120 6709 c0 -32 6 -35 34 -14 21 16 16 30 -14 38 -17 4 -20 0 -20
-24z"/>
<path d="M6250 6731 c0 -5 -3 -17 -7 -26 -5 -14 -2 -16 18 -10 32 10 34 12 19
30 -14 17 -30 20 -30 6z"/>
<path d="M6450 6725 c-15 -18 -13 -20 19 -30 20 -6 23 -4 18 10 -4 9 -7 21 -7
26 0 14 -16 11 -30 -6z"/>
<path d="M6583 6729 c-29 -10 -29 -20 -2 -37 25 -16 32 -11 27 21 -3 21 -6 23
-25 16z"/>
<path d="M2583 6567 c-156 -89 -283 -164 -283 -167 1 -6 564 -330 573 -330 4
0 7 149 7 330 0 182 -3 330 -7 330 -5 0 -135 -73 -290 -163z"/>
<path d="M4608 6667 c-76 -33 -138 -64 -138 -67 0 -8 240 -183 244 -179 5 5
37 302 33 305 -1 1 -64 -26 -139 -59z"/>
<path d="M7984 6688 c3 -24 11 -92 17 -153 6 -60 13 -112 14 -114 5 -4 245
171 245 179 0 4 -37 23 -82 43 -46 19 -109 47 -142 62 l-58 26 6 -43z"/>
<path d="M9850 6401 c0 -182 3 -331 7 -331 9 0 572 324 573 330 0 5 -536 315
-564 326 -15 6 -16 -21 -16 -325z"/>
<path d="M5257 6682 c-42 -14 -76 -29 -75 -32 6 -12 128 -120 137 -120 7 0 41
144 41 173 0 11 -19 7 -103 -21z"/>
<path d="M6180 6685 c0 -28 3 -30 32 -14 21 11 21 12 3 25 -27 20 -35 17 -35
-11z"/>
<path d="M6515 6696 c-18 -13 -18 -14 3 -25 29 -16 32 -14 32 14 0 28 -8 31
-35 11z"/>
<path d="M7370 6703 c0 -29 34 -173 41 -173 9 0 131 108 137 120 2 5 -154 60
-171 60 -4 0 -7 -3 -7 -7z"/>
<path d="M6297 6693 c-4 -3 -7 -12 -7 -20 0 -15 26 -18 34 -4 7 11 -18 33 -27
24z"/>
<path d="M6411 6686 c-12 -14 -5 -26 16 -26 15 0 18 26 4 34 -5 3 -14 0 -20
-8z"/>
<path d="M5890 6650 c11 -22 22 -40 24 -40 6 0 46 65 46 74 0 3 -20 6 -45 6
l-45 0 20 -40z"/>
<path d="M5970 6686 c0 -4 7 -21 16 -37 l15 -30 21 26 c11 14 18 28 16 30 -8
8 -68 18 -68 11z"/>
<path d="M6708 6683 c-23 -6 -22 -9 1 -40 l20 -24 15 30 c9 16 16 32 16 36 0
6 -26 5 -52 -2z"/>
<path d="M6770 6684 c0 -9 40 -74 46 -74 2 0 13 18 24 40 l20 40 -45 0 c-25 0
-45 -3 -45 -6z"/>
<path d="M5778 6673 c-16 -4 -15 -9 9 -44 14 -21 29 -39 33 -39 5 0 13 12 18
28 5 15 13 35 17 45 6 14 2 17 -26 16 -19 -1 -42 -3 -51 -6z"/>
<path d="M6062 6649 l11 -31 21 21 c18 19 19 23 6 31 -8 5 -23 10 -32 10 -15
0 -15 -4 -6 -31z"/>
<path d="M6236 6663 c-8 -20 -3 -25 18 -17 20 8 21 20 2 27 -8 3 -17 -1 -20
-10z"/>
<path d="M6470 6669 c-13 -8 -13 -10 0 -19 27 -18 39 -9 22 17 -5 8 -12 9 -22
2z"/>
<path d="M6630 6670 c-13 -8 -12 -12 6 -31 l21 -21 11 31 c9 27 9 31 -6 31 -9
0 -24 -5 -32 -10z"/>
<path d="M6875 6663 c4 -10 12 -30 17 -45 5 -16 13 -28 18 -28 4 0 19 18 33
39 l26 39 -22 6 c-12 3 -35 6 -51 6 -23 0 -27 -3 -21 -17z"/>
<path d="M6125 6648 c10 -33 13 -34 32 -15 19 19 18 22 -15 32 -22 6 -23 5
-17 -17z"/>
<path d="M6578 6663 c-22 -6 -23 -17 -3 -33 18 -15 20 -13 29 18 7 22 5 23
-26 15z"/>
<path d="M5672 6650 c-18 -4 -35 -9 -37 -11 -2 -2 15 -24 37 -47 22 -24 41
-42 43 -40 2 3 35 100 35 105 0 5 -43 1 -78 -7z"/>
<path d="M6326 6645 c-4 -10 1 -15 15 -15 15 0 19 -5 15 -15 -3 -9 0 -15 9
-15 8 0 12 6 9 14 -4 9 2 16 15 18 15 2 18 7 11 18 -8 13 -11 12 -24 -5 -13
-19 -15 -19 -21 -2 -9 21 -21 22 -29 2z"/>
<path d="M6980 6658 c0 -6 32 -102 35 -106 2 -2 21 16 43 40 27 28 37 45 29
50 -15 8 -107 22 -107 16z"/>
<path d="M6180 6630 c0 -22 8 -25 30 -10 13 9 13 11 0 20 -22 15 -30 12 -30
-10z"/>
<path d="M6276 6635 c-4 -10 1 -15 15 -15 18 0 20 -4 14 -30 -4 -20 -3 -30 5
-30 7 0 10 6 7 14 -3 8 2 17 11 21 13 5 11 10 -13 30 -33 29 -31 29 -39 10z"/>
<path d="M6415 6626 c-24 -21 -26 -26 -13 -31 9 -4 14 -13 11 -21 -3 -8 0 -14
7 -14 8 0 9 10 5 29 -5 25 -3 30 14 33 14 2 18 7 13 16 -6 9 -15 6 -37 -12z"/>
<path d="M6520 6640 c-13 -9 -13 -11 0 -20 22 -15 30 -12 30 10 0 22 -8 25
-30 10z"/>
<path d="M3563 6522 c-112 -64 -203 -119 -202 -122 0 -7 396 -234 414 -238 13
-3 15 31 15 237 0 186 -3 241 -12 240 -7 0 -104 -53 -215 -117z"/>
<path d="M5100 6613 c-30 -14 -75 -34 -99 -45 l-45 -19 89 -64 c49 -36 92 -65
96 -65 3 0 10 33 13 73 4 39 10 89 13 110 3 20 2 37 -3 36 -5 0 -34 -12 -64
-26z"/>
<path d="M7563 6603 c3 -21 9 -71 13 -110 3 -40 10 -73 13 -73 4 0 47 29 96
65 l89 64 -45 19 c-24 11 -70 31 -103 46 -32 14 -61 26 -64 26 -2 0 -2 -17 1
-37z"/>
<path d="M8940 6399 c0 -206 2 -240 15 -237 18 4 414 231 415 238 0 7 -407
240 -420 240 -7 0 -10 -80 -10 -241z"/>
<path d="M5546 6608 l-60 -21 78 -72 c42 -39 90 -79 105 -88 l29 -17 7 56 c4
31 4 58 2 61 -3 2 -23 -5 -46 -16 -57 -30 -65 -28 -57 14 3 19 9 51 12 70 8
40 8 40 -70 13z"/>
<path d="M6230 6611 c0 -14 5 -19 15 -14 17 6 15 25 -3 31 -7 2 -12 -5 -12
-17z"/>
<path d="M6477 6623 c-11 -10 -8 -20 8 -27 10 -4 15 1 15 14 0 20 -11 26 -23
13z"/>
<path d="M7113 6597 c4 -20 10 -53 13 -72 8 -42 0 -44 -57 -14 -23 11 -43 18
-46 16 -2 -3 -2 -30 2 -61 l7 -56 29 17 c15 9 63 49 105 88 l78 72 -55 18
c-29 10 -60 20 -68 23 -11 4 -13 -2 -8 -31z"/>
<path d="M5942 6603 c-22 -4 -22 -5 -5 -34 10 -16 20 -29 24 -29 6 0 29 54 29
66 0 4 -14 3 -48 -3z"/>
<path d="M6012 6585 c13 -30 24 -32 38 -6 15 28 13 31 -20 31 -28 0 -29 -1
-18 -25z"/>
<path d="M6091 6568 c27 -54 28 -55 39 -38 15 23 12 30 -10 30 -17 0 -19 3
-10 19 14 28 13 31 -15 31 l-25 0 21 -42z"/>
<path d="M6140 6590 c0 -23 13 -26 29 -6 9 11 8 15 -5 20 -23 9 -24 8 -24 -14z"/>
<path d="M6270 6596 c0 -9 5 -16 10 -16 6 0 10 4 10 9 0 6 -4 13 -10 16 -5 3
-10 -1 -10 -9z"/>
<path d="M6446 6601 c-4 -7 -5 -15 -2 -18 9 -9 19 4 14 18 -4 11 -6 11 -12 0z"/>
<path d="M6562 6603 c-10 -4 -10 -8 -1 -19 16 -20 29 -17 29 6 0 20 -5 23 -28
13z"/>
<path d="M6610 6604 c0 -3 5 -14 10 -25 9 -16 7 -19 -10 -19 -22 0 -25 -7 -10
-30 11 -17 12 -16 39 38 l21 42 -25 0 c-14 0 -25 -3 -25 -6z"/>
<path d="M6670 6604 c0 -12 21 -44 29 -44 4 0 13 11 19 25 11 24 10 25 -18 25
-17 0 -30 -3 -30 -6z"/>
<path d="M6740 6608 c0 -14 23 -68 29 -68 4 0 15 14 24 30 14 22 15 30 5 30
-7 0 -23 3 -35 6 -13 4 -23 4 -23 2z"/>
<path d="M6190 6578 c0 -17 2 -18 15 -8 8 7 15 14 15 15 0 2 -7 5 -15 9 -10 4
-15 -1 -15 -16z"/>
<path d="M6522 6591 c-10 -6 -10 -10 3 -21 13 -11 15 -9 15 9 0 24 0 24 -18
12z"/>
<path d="M5793 6567 c-34 -12 -64 -25 -67 -28 -6 -6 54 -65 109 -107 27 -22
30 -22 36 -5 4 10 8 30 8 46 1 27 1 27 -29 12 -46 -24 -53 -20 -45 28 4 23 10
45 14 50 4 4 30 -17 58 -48 50 -54 73 -67 73 -42 0 6 3 22 6 35 6 21 5 22 -20
12 -49 -18 -54 -9 -30 54 9 23 -36 20 -113 -7z"/>
<path d="M6336 6581 c-4 -6 -1 -11 8 -11 8 0 17 -6 19 -12 4 -10 6 -10 6 0 1
6 8 12 17 12 8 0 12 5 9 10 -5 8 -11 8 -19 1 -9 -7 -16 -7 -23 0 -8 8 -13 8
-17 0z"/>
<path d="M6824 6574 c24 -63 19 -72 -30 -54 -25 10 -26 9 -20 -12 3 -13 6 -29
6 -35 0 -25 23 -12 73 42 28 31 54 52 58 48 4 -5 10 -27 14 -50 8 -48 1 -52
-45 -28 -30 15 -30 15 -29 -12 0 -16 4 -36 8 -46 6 -17 9 -17 36 5 60 45 115
102 108 108 -14 12 -136 50 -161 50 -18 0 -23 -4 -18 -16z"/>
<path d="M4300 6494 c-80 -46 -145 -89 -145 -94 0 -8 286 -180 300 -180 3 0 5
81 5 180 0 99 -3 180 -7 179 -5 0 -73 -38 -153 -85z"/>
<path d="M5403 6547 c-40 -18 -73 -35 -73 -38 0 -3 29 -26 65 -52 43 -31 67
-43 69 -35 6 17 18 158 14 157 -2 0 -36 -15 -75 -32z"/>
<path d="M6230 6570 c0 -5 4 -10 9 -10 6 0 13 5 16 10 3 6 -1 10 -9 10 -9 0
-16 -4 -16 -10z"/>
<path d="M6475 6570 c3 -5 10 -10 16 -10 5 0 9 5 9 10 0 6 -7 10 -16 10 -8 0
-12 -4 -9 -10z"/>
<path d="M7255 6508 c4 -40 8 -79 11 -86 2 -8 25 4 66 34 71 51 77 59 51 67
-10 2 -44 17 -76 31 l-58 26 6 -72z"/>
<path d="M8270 6400 c0 -99 2 -180 5 -180 11 0 305 174 305 180 0 7 -293 180
-305 180 -3 0 -5 -81 -5 -180z"/>
<path d="M6270 6561 c0 -5 6 -12 13 -14 9 -4 9 -8 -2 -15 -11 -8 -9 -11 9 -17
18 -6 20 -9 9 -16 -9 -6 -10 -9 -2 -9 6 0 10 -9 8 -20 -2 -11 0 -22 4 -25 5
-2 7 9 6 25 -2 29 4 37 19 23 10 -10 56 -11 62 -1 10 16 23 8 19 -12 -2 -11 0
-22 5 -25 5 -3 7 4 5 15 -2 11 2 20 8 20 8 0 7 3 -2 9 -11 7 -9 10 9 16 18 6
20 9 9 17 -11 7 -11 11 -1 15 6 2 12 9 12 14 0 5 -9 4 -20 -3 -11 -7 -19 -19
-17 -27 1 -8 -3 -16 -9 -18 -7 -2 -10 5 -7 22 6 29 -2 32 -25 8 -16 -16 -16
-16 1 -10 9 3 17 2 17 -3 0 -10 -7 -12 -35 -12 -28 0 -35 2 -35 12 0 5 8 6 18
3 16 -6 16 -6 0 10 -23 24 -31 21 -25 -8 3 -17 0 -24 -7 -22 -6 2 -10 10 -9
18 2 8 -6 20 -17 27 -11 7 -20 8 -20 3z m80 -61 c0 -5 -2 -10 -4 -10 -3 0 -8
5 -11 10 -3 6 -1 10 4 10 6 0 11 -4 11 -10z m50 6 c0 -3 -4 -8 -10 -11 -5 -3
-10 -1 -10 4 0 6 5 11 10 11 6 0 10 -2 10 -4z"/>
<path d="M6150 6555 c0 -17 32 -65 40 -60 15 9 12 25 -4 25 -9 0 -12 7 -9 20
4 14 0 20 -11 20 -9 0 -16 -2 -16 -5z"/>
<path d="M6553 6540 c3 -13 0 -20 -9 -20 -16 0 -19 -16 -4 -25 5 -3 16 8 25
24 19 37 19 41 -1 41 -11 0 -15 -6 -11 -20z"/>
<path d="M6040 6541 c0 -5 6 -14 14 -20 12 -10 17 -8 26 8 9 19 8 21 -15 21
-14 0 -25 -4 -25 -9z"/>
<path d="M6200 6541 c0 -19 23 -71 31 -71 5 0 9 5 9 10 0 6 -5 10 -11 10 -5 0
-8 4 -4 9 3 5 1 12 -5 16 -6 4 -8 11 -4 16 4 6 11 6 19 -1 8 -7 16 -7 19 -2 3
6 -4 12 -17 16 -30 8 -37 7 -37 -3z"/>
<path d="M6487 6543 c-9 -2 -15 -9 -11 -14 4 -6 11 -6 19 1 8 7 15 7 19 1 4
-5 2 -12 -4 -16 -6 -4 -8 -11 -5 -16 4 -5 1 -9 -4 -9 -6 0 -11 -4 -11 -10 0
-22 19 -8 29 21 18 51 15 54 -32 42z"/>
<path d="M6650 6529 c9 -16 14 -18 26 -8 21 17 17 29 -11 29 -23 0 -24 -2 -15
-21z"/>
<path d="M5977 6534 c-4 -4 2 -19 13 -34 l20 -28 -30 -12 c-29 -12 -30 -14
-14 -31 24 -26 31 -24 38 13 6 29 7 30 24 15 25 -23 32 -21 32 9 0 23 -3 25
-25 20 -28 -7 -29 -7 -15 28 8 23 7 26 -14 26 -12 0 -26 -3 -29 -6z"/>
<path d="M6710 6514 c14 -35 13 -35 -15 -28 -22 5 -25 3 -25 -20 0 -30 7 -32
32 -9 17 15 18 14 24 -15 7 -37 14 -39 38 -13 16 17 15 19 -14 31 l-30 12 20
28 c22 30 18 40 -16 40 -21 0 -22 -3 -14 -26z"/>
<path d="M4835 6469 c-55 -32 -101 -63 -103 -68 -2 -7 77 -55 211 -128 4 -2 7
55 7 126 0 72 -3 131 -7 130 -5 0 -53 -27 -108 -60z"/>
<path d="M7780 6399 c0 -71 3 -128 8 -126 122 67 212 121 212 127 0 6 -205
130 -216 130 -2 0 -4 -59 -4 -131z"/>
<path d="M6087 6501 c-17 -6 -18 -8 -3 -20 18 -15 29 -10 24 12 -2 9 -9 12
-21 8z"/>
<path d="M6120 6506 c0 -2 6 -9 14 -15 10 -9 15 -8 20 4 4 10 -1 15 -14 15
-11 0 -20 -2 -20 -4z"/>
<path d="M6240 6503 c0 -5 5 -15 10 -23 7 -12 9 -10 7 8 -1 19 -17 33 -17 15z"/>
<path d="M6473 6488 c-2 -18 0 -20 7 -8 12 18 13 30 2 30 -4 0 -9 -10 -9 -22z"/>
<path d="M6576 6495 c4 -8 7 -15 9 -15 1 0 8 7 15 15 10 13 9 15 -8 15 -15 0
-20 -5 -16 -15z"/>
<path d="M6620 6489 c0 -22 13 -25 29 -5 9 11 7 15 -9 19 -15 4 -20 0 -20 -14z"/>
<path d="M5233 6451 c-45 -25 -82 -48 -82 -51 0 -3 37 -26 82 -51 l82 -46 3
49 c2 26 2 70 0 97 l-3 48 -82 -46z"/>
<path d="M7410 6400 l0 -101 43 26 c23 14 61 36 85 48 23 11 42 24 42 27 0 4
-15 14 -32 23 -18 8 -57 30 -85 47 l-53 30 0 -100z"/>
<path d="M6155 6471 c-6 -11 9 -23 19 -14 9 9 7 23 -3 23 -6 0 -12 -4 -16 -9z"/>
<path d="M6190 6474 c0 -11 25 -31 36 -27 6 2 17 -4 25 -14 12 -15 12 -16 -4
-10 -11 4 -16 3 -12 -3 3 -6 1 -10 -4 -10 -6 0 -11 5 -11 11 0 5 -5 7 -11 3
-8 -4 -7 -9 2 -15 12 -8 12 -10 0 -18 -9 -6 -10 -11 -2 -15 6 -4 11 -2 11 3 0
6 5 11 11 11 5 0 7 -4 4 -10 -4 -6 1 -7 12 -3 16 6 16 5 5 -10 -8 -8 -20 -13
-28 -10 -8 3 -14 0 -14 -6 0 -17 31 -13 47 7 12 14 14 14 10 1 -3 -9 0 -16 7
-16 19 0 12 40 -8 43 -10 1 -21 5 -24 9 -9 9 20 25 33 18 5 -4 7 -3 3 2 -4 4
-3 15 2 25 6 12 5 17 -5 17 -7 0 -11 -7 -8 -16 4 -13 2 -13 -10 2 -8 9 -22 17
-31 17 -9 0 -16 5 -16 10 0 6 -4 10 -10 10 -5 0 -10 -3 -10 -6z"/>
<path d="M6520 6470 c0 -5 5 -10 10 -10 6 0 10 5 10 10 0 6 -4 10 -10 10 -5 0
-10 -4 -10 -10z"/>
<path d="M6552 6471 c2 -7 7 -12 11 -12 12 1 9 15 -3 20 -7 2 -11 -2 -8 -8z"/>
<path d="M5528 6437 c-32 -17 -58 -34 -58 -37 0 -3 27 -20 60 -38 l60 -33 0
71 c0 38 -1 70 -2 70 -2 0 -29 -15 -60 -33z"/>
<path d="M6120 6460 c-15 -11 -7 -22 40 -51 13 -8 13 -10 0 -18 -47 -29 -55
-40 -40 -51 12 -7 16 -5 18 11 2 13 9 19 18 15 8 -3 14 1 14 8 0 8 6 17 13 20
10 5 10 7 0 12 -7 3 -13 12 -13 20 0 7 -6 11 -14 8 -9 -4 -16 2 -18 15 -2 16
-6 18 -18 11z"/>
<path d="M6590 6449 c0 -15 -5 -19 -15 -15 -9 3 -15 0 -15 -8 0 -8 -6 -17 -12
-20 -10 -5 -10 -7 0 -12 6 -3 12 -12 12 -20 0 -8 6 -11 15 -8 10 4 15 0 15
-15 0 -14 5 -19 15 -15 23 9 18 21 -15 41 -16 9 -30 20 -30 23 0 3 14 14 30
23 33 20 38 32 15 41 -10 4 -15 -1 -15 -15z"/>
<path d="M7140 6400 l0 -71 60 33 c33 18 60 35 60 38 0 3 -27 20 -60 38 l-60
33 0 -71z"/>
<path d="M6450 6440 c5 -10 6 -21 2 -25 -4 -5 -2 -6 3 -2 13 7 42 -9 33 -18
-3 -4 -14 -8 -24 -9 -20 -3 -27 -43 -8 -43 7 0 10 7 7 16 -4 13 -2 13 10 -1
16 -20 47 -24 47 -7 0 6 -6 9 -14 6 -8 -3 -20 2 -28 10 -11 15 -11 16 5 10 11
-4 16 -3 12 3 -3 6 -1 10 4 10 6 0 11 -5 11 -11 0 -5 5 -7 11 -3 8 4 7 9 -2
15 -12 8 -12 10 0 18 9 6 10 11 2 15 -6 4 -11 2 -11 -3 0 -6 -5 -11 -11 -11
-5 0 -7 4 -4 10 4 6 -1 7 -12 3 -16 -6 -16 -5 -5 10 8 8 20 13 28 10 8 -3 14
0 14 6 0 17 -31 13 -47 -6 -12 -15 -14 -15 -10 -2 3 9 -1 16 -8 16 -10 0 -11
-5 -5 -17z"/>
<path d="M5748 6429 c-21 -11 -38 -23 -38 -27 0 -5 18 -18 40 -31 l40 -22 0
50 c0 28 -1 51 -2 51 -2 -1 -20 -10 -40 -21z"/>
<path d="M6070 6440 c-13 -9 -13 -11 0 -20 8 -5 20 -12 25 -14 9 -4 -6 -20
-30 -30 -6 -3 -3 -9 5 -15 22 -16 30 -13 30 10 0 15 5 19 15 15 10 -4 15 1 15
14 0 13 -5 18 -15 14 -10 -4 -15 0 -15 15 0 23 -7 26 -30 11z"/>
<path d="M6180 6440 c0 -5 5 -10 10 -10 6 0 10 5 10 10 0 6 -4 10 -10 10 -5 0
-10 -4 -10 -10z"/>
<path d="M6530 6440 c0 -5 5 -10 10 -10 6 0 10 5 10 10 0 6 -4 10 -10 10 -5 0
-10 -4 -10 -10z"/>
<path d="M6630 6429 c0 -15 -5 -19 -15 -15 -10 4 -15 -1 -15 -14 0 -13 5 -18
15 -14 10 4 15 0 15 -15 0 -23 8 -26 30 -10 8 6 11 12 5 15 -5 2 -17 9 -25 14
-13 9 -13 11 0 20 8 5 20 12 25 14 6 3 3 9 -5 15 -22 16 -30 13 -30 -10z"/>
<path d="M6940 6400 l0 -51 40 22 c22 13 40 26 40 31 0 4 -18 17 -40 28 l-40
20 0 -50z"/>
<path d="M5908 6422 c-16 -10 -28 -19 -28 -22 0 -3 14 -13 30 -22 l30 -17 0
39 c0 22 -1 40 -2 39 -2 0 -15 -8 -30 -17z"/>
<path d="M6790 6400 l0 -39 30 17 c16 9 30 19 30 22 0 3 -14 13 -30 22 l-30
17 0 -39z"/>
<path d="M6026 6414 c-20 -14 -20 -14 0 -28 16 -13 19 -13 22 0 2 8 2 20 0 28
-3 13 -6 13 -22 0z"/>
<path d="M6680 6400 c0 -28 2 -29 20 -18 11 7 20 15 20 18 0 3 -9 11 -20 18
-18 11 -20 10 -20 -18z"/>
<path d="M6410 6401 c0 -6 4 -13 10 -16 6 -3 7 1 4 9 -7 18 -14 21 -14 7z"/>
<path d="M5395 6343 c-33 -24 -59 -47 -59 -51 1 -4 34 -21 73 -39 l72 -33 -7
78 c-3 42 -9 80 -13 83 -3 4 -33 -13 -66 -38z"/>
<path d="M5645 6357 c-22 -18 -66 -57 -99 -88 l-59 -56 63 -21 c35 -12 66 -20
68 -17 3 2 -1 32 -8 65 -7 33 -10 63 -6 67 3 4 27 -3 52 -16 26 -12 48 -20 51
-17 7 6 -8 116 -16 116 -3 -1 -24 -15 -46 -33z"/>
<path d="M5832 6368 c-17 -11 -32 -22 -32 -24 0 -2 18 -13 40 -24 l40 -20 0
32 c0 52 -11 60 -48 36z"/>
<path d="M5966 6371 c-16 -17 -15 -19 14 -31 l30 -12 -20 -28 c-22 -30 -18
-40 16 -40 21 0 22 3 14 26 -14 35 -13 37 15 30 22 -6 25 -3 25 19 0 29 -7 31
-32 8 -17 -15 -18 -14 -24 15 -7 37 -14 39 -38 13z"/>
<path d="M6726 6358 c-6 -29 -7 -30 -24 -15 -25 23 -32 21 -32 -8 0 -22 3 -25
25 -19 28 7 29 5 15 -30 -8 -23 -7 -26 14 -26 34 0 38 10 16 40 l-20 28 30 12
c29 12 30 14 14 31 -24 26 -31 24 -38 -13z"/>
<path d="M6856 6367 c-3 -12 -6 -32 -6 -45 l0 -22 42 21 c40 20 41 22 22 36
-43 32 -51 34 -58 10z"/>
<path d="M7025 6334 c-4 -31 -5 -58 -2 -60 3 -3 25 5 51 17 25 13 49 20 52 16
4 -4 1 -34 -6 -67 -7 -33 -11 -63 -8 -65 2 -3 33 5 68 17 l63 21 -59 56 c-60
57 -138 121 -147 121 -2 0 -8 -25 -12 -56z"/>
<path d="M7266 6378 c-3 -7 -7 -46 -11 -85 l-6 -73 68 31 c37 17 71 34 76 38
4 4 -22 28 -58 54 -43 31 -67 43 -69 35z"/>
<path d="M3968 6259 c-93 -67 -168 -124 -168 -128 0 -7 372 -173 377 -168 3 3
-33 365 -40 405 -1 7 -74 -39 -169 -109z"/>
<path d="M4590 6295 c-63 -46 -116 -87 -117 -92 -3 -7 268 -133 275 -128 1 1
-5 62 -13 136 -8 74 -15 142 -15 152 0 9 -3 17 -7 17 -5 -1 -60 -39 -123 -85z"/>
<path d="M5053 6323 c-43 -32 -80 -62 -80 -68 -2 -9 187 -98 194 -92 6 7 -20
217 -27 217 -4 0 -43 -26 -87 -57z"/>
<path d="M7572 6273 c-7 -58 -11 -108 -9 -110 7 -6 202 85 198 93 -6 11 -162
124 -171 124 -4 0 -12 -48 -18 -107z"/>
<path d="M8010 6363 c0 -10 -7 -78 -15 -152 -8 -74 -14 -135 -13 -136 6 -4
278 120 278 126 0 7 -234 179 -244 179 -3 0 -6 -8 -6 -17z"/>
<path d="M8590 6361 c0 -11 -9 -104 -20 -207 -11 -103 -19 -189 -17 -191 5 -5
377 161 377 168 0 6 -288 219 -327 243 -9 5 -13 1 -13 -13z"/>
<path d="M3117 6204 c-126 -91 -226 -169 -223 -172 9 -9 511 -230 514 -227 5
5 -47 505 -56 538 l-7 27 -228 -166z"/>
<path d="M6180 6360 c0 -5 5 -10 10 -10 6 0 10 5 10 10 0 6 -4 10 -10 10 -5 0
-10 -4 -10 -10z"/>
<path d="M6530 6360 c0 -5 5 -10 10 -10 6 0 10 5 10 10 0 6 -4 10 -10 10 -5 0
-10 -4 -10 -10z"/>
<path d="M9376 6338 c-10 -57 -58 -530 -54 -533 3 -3 505 218 514 227 4 5
-386 296 -443 331 -8 5 -14 -3 -17 -25z"/>
<path d="M1972 6134 c-172 -125 -311 -228 -310 -229 10 -9 703 -314 706 -311
4 5 -66 689 -76 734 l-7 33 -313 -227z"/>
<path d="M10436 6323 c-12 -76 -77 -725 -74 -729 3 -3 696 302 706 311 2 2
-583 429 -615 448 -7 5 -13 -6 -17 -30z"/>
<path d="M430 6045 c-228 -166 -415 -307 -417 -311 -2 -8 887 -408 934 -420
18 -5 16 18 -34 488 -28 271 -52 505 -52 521 -1 15 -4 27 -8 26 -5 0 -195
-137 -423 -304z"/>
<path d="M5881 6290 c-29 -33 -56 -58 -61 -55 -4 3 -11 25 -14 50 -4 25 -11
45 -15 45 -4 0 -22 -16 -41 -35 -24 -25 -29 -36 -19 -39 8 -2 42 -14 77 -25
77 -26 107 -27 98 -5 -3 9 -9 27 -12 41 -6 23 -5 24 30 17 37 -6 37 -6 30 22
-4 16 -10 32 -14 37 -3 4 -30 -20 -59 -53z"/>
<path d="M6156 6342 c-3 -6 -1 -14 5 -17 15 -10 25 3 12 16 -7 7 -13 7 -17 1z"/>
<path d="M6304 6342 c5 -8 -1 -12 -16 -13 -23 -1 -23 -1 2 -9 14 -4 18 -9 10
-9 -12 -1 -13 -3 -1 -10 11 -7 9 -10 -9 -16 -18 -6 -20 -9 -9 -16 12 -8 12
-10 -1 -18 -8 -6 -12 -12 -10 -15 3 -2 14 2 25 10 16 12 17 17 7 23 -11 7 -10
10 3 15 23 9 27 8 19 -5 -4 -7 3 -6 17 2 13 7 24 12 24 12 0 0 11 -5 24 -12
19 -11 22 -11 16 0 -6 9 -3 11 9 6 10 -4 21 -7 24 -7 4 0 0 -5 -8 -10 -13 -8
-12 -11 5 -24 11 -8 22 -12 25 -10 2 3 -2 9 -10 15 -13 8 -13 10 -1 18 11 7 9
10 -9 16 -18 6 -20 9 -9 16 12 7 11 9 -1 10 -8 0 -4 5 10 10 l25 8 -25 -2
c-14 -1 -24 -8 -22 -15 2 -14 -14 -16 -22 -4 -6 10 -52 9 -62 -1 -14 -13 -23
-7 -19 13 2 11 -1 23 -7 26 -7 4 -8 2 -4 -4z m46 -42 c0 -5 -5 -10 -11 -10 -5
0 -7 5 -4 10 3 6 8 10 11 10 2 0 4 -4 4 -10z m45 0 c3 -5 1 -10 -4 -10 -6 0
-11 5 -11 10 0 6 2 10 4 10 3 0 8 -4 11 -10z"/>
<path d="M6555 6339 c-10 -15 3 -25 16 -12 7 7 7 13 1 17 -6 3 -14 1 -17 -5z"/>
<path d="M6788 6344 c-3 -5 -8 -22 -12 -38 -7 -28 -7 -28 30 -22 35 7 36 6 30
-17 -3 -14 -9 -32 -12 -41 -9 -22 21 -21 98 5 35 11 69 23 77 25 10 3 5 14
-19 39 -19 19 -37 35 -41 35 -4 0 -10 -19 -14 -42 -4 -24 -10 -47 -13 -52 -3
-6 -31 19 -62 53 -32 35 -59 60 -62 55z"/>
<path d="M11869 6323 c0 -15 -24 -250 -52 -521 -50 -470 -52 -493 -34 -488 36
9 936 411 937 418 0 6 -823 609 -842 616 -4 2 -8 -9 -9 -25z"/>
<path d="M6190 6330 c0 -5 5 -10 10 -10 6 0 10 5 10 10 0 6 -4 10 -10 10 -5 0
-10 -4 -10 -10z"/>
<path d="M6520 6330 c0 -5 5 -10 10 -10 6 0 10 5 10 10 0 6 -4 10 -10 10 -5 0
-10 -4 -10 -10z"/>
<path d="M6066 6297 c-32 -42 -32 -47 -1 -47 22 0 24 3 15 19 -15 28 -13 34
10 28 15 -4 20 0 20 14 0 28 -16 23 -44 -14z"/>
<path d="M6211 6299 c-14 -42 -14 -49 4 -49 8 0 15 -7 15 -15 0 -8 7 -15 15
-15 20 0 19 10 -2 26 -17 13 -17 13 0 14 10 0 15 5 12 10 -5 8 -11 8 -20 0 -8
-7 -15 -7 -19 -1 -4 5 -2 12 4 16 6 4 8 11 5 16 -4 5 -1 9 4 9 6 0 11 5 11 10
0 22 -19 8 -29 -21z"/>
<path d="M6246 6314 c-8 -20 -8 -24 2 -24 4 0 8 9 9 20 2 24 -3 26 -11 4z"/>
<path d="M6473 6312 c0 -12 5 -22 9 -22 11 0 10 12 -2 30 -7 12 -9 10 -7 -8z"/>
<path d="M6490 6320 c0 -5 5 -10 11 -10 5 0 8 -4 4 -9 -3 -5 -1 -12 5 -16 6
-4 8 -11 4 -16 -4 -6 -11 -6 -19 1 -9 8 -15 8 -20 0 -3 -5 2 -10 12 -10 17 -1
17 -1 1 -14 -22 -16 -23 -26 -3 -26 8 0 15 7 15 15 0 8 7 15 15 15 18 0 18 7
4 49 -10 29 -29 43 -29 21z"/>
<path d="M6620 6311 c0 -14 5 -18 20 -14 23 6 25 0 10 -28 -9 -16 -7 -19 15
-19 31 0 31 5 -1 47 -28 37 -44 42 -44 14z"/>
<path d="M6130 6305 c-10 -13 -9 -15 8 -15 15 0 20 5 16 15 -4 8 -7 15 -9 15
-1 0 -8 -7 -15 -15z"/>
<path d="M6576 6305 c-4 -10 1 -15 16 -15 17 0 18 2 8 15 -7 8 -14 15 -15 15
-2 0 -5 -7 -9 -15z"/>
<path d="M6165 6279 c-18 -34 -15 -45 11 -35 13 5 14 10 6 18 -8 8 -7 14 5 23
11 8 12 14 5 19 -6 4 -18 -6 -27 -25z"/>
<path d="M6535 6300 c-3 -6 1 -13 10 -16 12 -5 13 -10 4 -20 -9 -11 -7 -15 5
-20 26 -10 29 1 11 35 -17 34 -21 36 -30 21z"/>
<path d="M5246 6214 c-38 -36 -67 -66 -65 -68 11 -9 171 -57 175 -53 7 6 -25
169 -34 179 -4 3 -38 -23 -76 -58z"/>
<path d="M6092 6235 l-22 -45 30 0 c30 0 30 0 14 25 -16 24 -15 25 5 25 23 0
24 1 15 24 -10 25 -18 19 -42 -29z"/>
<path d="M6596 6264 c-9 -23 -8 -24 15 -24 20 0 21 -1 5 -25 -16 -25 -16 -25
14 -25 l30 0 -22 45 c-24 48 -32 54 -42 29z"/>
<path d="M7407 6273 c-9 -15 -39 -175 -34 -180 7 -6 178 50 175 57 -7 17 -137
130 -141 123z"/>
<path d="M6330 6260 c-8 -5 -11 -12 -8 -16 4 -3 14 1 23 10 18 17 9 21 -15 6z"/>
<path d="M6385 6254 c9 -9 19 -13 23 -10 3 4 0 11 -8 16 -24 15 -33 11 -15 -6z"/>
<path d="M5937 6231 l-17 -29 32 -6 c40 -8 44 -3 28 34 -15 37 -21 37 -43 1z"/>
<path d="M6750 6230 c-16 -37 -12 -42 28 -34 l32 6 -17 29 c-22 36 -28 36 -43
-1z"/>
<path d="M5667 6205 l-37 -44 55 -12 c30 -7 57 -10 60 -8 6 6 -27 109 -34 109
-3 -1 -23 -20 -44 -45z"/>
<path d="M6361 6243 c-1 -7 -8 -13 -17 -13 -8 0 -12 -5 -9 -10 5 -8 11 -8 19
-1 9 7 16 7 23 0 8 -8 13 -8 17 0 4 6 1 11 -8 11 -8 0 -17 6 -19 13 -4 10 -6
10 -6 0z"/>
<path d="M6997 6198 c-9 -28 -14 -54 -12 -57 3 -2 30 1 60 8 l56 13 -37 41
c-21 23 -41 43 -44 45 -3 1 -14 -21 -23 -50z"/>
<path d="M6012 6215 c-11 -24 -10 -25 18 -25 33 0 35 3 20 31 -14 26 -25 24
-38 -6z"/>
<path d="M6190 6220 c0 -13 5 -18 15 -14 12 5 13 10 4 20 -15 19 -19 18 -19
-6z"/>
<path d="M6305 6213 c9 -36 13 -39 27 -25 9 9 7 13 -5 17 -9 4 -13 13 -10 21
3 8 0 14 -7 14 -8 0 -10 -9 -5 -27z"/>
<path d="M6413 6226 c3 -8 -1 -17 -10 -21 -12 -4 -14 -8 -5 -17 14 -14 18 -11
27 25 5 18 3 27 -5 27 -7 0 -10 -6 -7 -14z"/>
<path d="M6521 6226 c-9 -10 -8 -15 4 -20 10 -4 15 1 15 14 0 24 -4 25 -19 6z"/>
<path d="M6680 6221 c-15 -28 -13 -31 20 -31 28 0 29 1 18 25 -13 30 -24 32
-38 6z"/>
<path d="M4855 6149 c-49 -45 -91 -84 -93 -88 -3 -7 238 -84 244 -78 3 2 -7
57 -21 121 -14 65 -25 119 -25 122 0 13 -24 -5 -105 -77z"/>
<path d="M6140 6211 c0 -14 5 -18 20 -14 16 4 18 8 9 19 -16 20 -29 17 -29 -5z"/>
<path d="M6561 6216 c-9 -11 -7 -15 9 -19 15 -4 20 0 20 14 0 22 -13 25 -29 5z"/>
<path d="M7770 6226 c0 -3 -11 -57 -25 -122 -14 -64 -24 -119 -21 -121 6 -6
247 71 244 78 -2 4 -43 43 -93 88 -81 72 -105 90 -105 77z"/>
<path d="M6270 6204 c0 -8 5 -12 10 -9 6 3 10 10 10 16 0 5 -4 9 -10 9 -5 0
-10 -7 -10 -16z"/>
<path d="M6440 6211 c0 -6 5 -13 10 -16 6 -3 10 1 10 9 0 9 -4 16 -10 16 -5 0
-10 -4 -10 -9z"/>
<path d="M5786 6173 l-26 -38 22 -7 c13 -3 36 -6 52 -7 23 -1 27 2 21 17 -4 9
-12 29 -17 45 -5 15 -13 27 -17 27 -4 0 -20 -17 -35 -37z"/>
<path d="M6230 6190 c0 -13 5 -18 15 -14 8 4 15 10 15 14 0 4 -7 10 -15 14
-10 4 -15 -1 -15 -14z"/>
<path d="M6480 6200 c-13 -9 -13 -11 0 -20 10 -6 16 -6 18 0 7 20 -3 30 -18
20z"/>
<path d="M6892 6183 c-5 -16 -13 -36 -17 -45 -6 -15 -2 -18 21 -17 16 1 39 4
52 7 l22 7 -26 38 c-15 20 -31 37 -35 37 -4 0 -12 -12 -17 -27z"/>
<path d="M5428 6144 c-27 -30 -48 -58 -48 -63 0 -5 28 -14 63 -20 34 -7 70
-14 79 -17 14 -4 13 6 -10 76 -14 44 -29 80 -32 79 -3 0 -26 -25 -52 -55z"/>
<path d="M6356 6186 c4 -9 -2 -16 -15 -18 -15 -2 -18 -7 -11 -18 8 -13 11 -12
23 4 14 19 14 19 25 0 10 -16 13 -17 22 -4 7 12 5 16 -11 18 -13 2 -19 9 -15
18 3 8 -1 14 -9 14 -8 0 -12 -6 -9 -14z"/>
<path d="M7218 6120 c-23 -70 -24 -80 -10 -76 9 3 45 10 80 17 34 6 62 15 62
20 0 9 -91 117 -100 118 -3 1 -18 -35 -32 -79z"/>
<path d="M5891 6154 c-12 -19 -21 -37 -21 -40 0 -2 20 -4 45 -4 25 0 45 3 45
6 0 8 -40 74 -45 74 -2 0 -12 -16 -24 -36z"/>
<path d="M6180 6170 c0 -22 8 -25 30 -10 13 9 13 11 0 20 -22 15 -30 12 -30
-10z"/>
<path d="M6520 6180 c-13 -9 -13 -11 0 -20 22 -15 30 -12 30 10 0 22 -8 25
-30 10z"/>
<path d="M6791 6156 c-12 -18 -21 -36 -21 -40 0 -3 20 -6 45 -6 25 0 45 2 45
4 0 7 -41 76 -45 76 -2 0 -13 -15 -24 -34z"/>
<path d="M4323 6062 c-72 -65 -132 -119 -132 -122 0 -5 328 -112 340 -111 5 1
-65 338 -72 345 -2 2 -63 -48 -136 -112z"/>
<path d="M5982 6148 c-6 -17 -10 -34 -8 -36 7 -6 66 9 66 16 -1 8 -36 52 -42
52 -2 0 -9 -14 -16 -32z"/>
<path d="M6062 6151 c-9 -27 -9 -31 6 -31 9 0 24 5 32 10 13 8 12 12 -6 31
l-21 21 -11 -31z"/>
<path d="M6130 6171 c0 -5 -3 -17 -7 -26 -5 -14 -2 -16 18 -10 32 10 34 12 19
30 -14 17 -30 20 -30 6z"/>
<path d="M6276 6166 c3 -8 12 -12 20 -9 21 8 17 23 -6 23 -13 0 -18 -5 -14
-14z"/>
<path d="M6420 6171 c0 -16 28 -20 34 -5 4 9 -1 14 -14 14 -11 0 -20 -4 -20
-9z"/>
<path d="M6570 6165 c-15 -18 -13 -20 19 -30 20 -6 23 -4 18 10 -4 9 -7 21 -7
26 0 14 -16 11 -30 -6z"/>
<path d="M6634 6159 c-16 -17 -16 -22 -4 -29 8 -6 23 -10 32 -10 15 0 15 4 7
30 -6 17 -12 30 -13 30 -2 0 -11 -9 -22 -21z"/>
<path d="M6707 6154 c-22 -30 -21 -32 23 -40 30 -7 33 -5 26 12 -5 10 -11 27
-13 37 -7 23 -14 21 -36 -9z"/>
<path d="M8265 6158 c-23 -93 -70 -328 -66 -329 12 -1 340 106 340 111 0 3
-39 39 -86 80 -47 41 -107 94 -134 118 -47 42 -49 42 -54 20z"/>
<path d="M6230 6153 c1 -19 16 -31 29 -24 7 5 10 14 7 20 -8 12 -36 15 -36 4z"/>
<path d="M6464 6149 c-3 -6 0 -15 7 -20 13 -7 28 5 29 24 0 11 -28 8 -36 -4z"/>
<path d="M5592 6104 c-46 -62 -49 -74 -19 -74 13 0 45 -3 71 -6 l46 -7 -26 59
c-14 33 -29 62 -32 66 -4 3 -22 -14 -40 -38z"/>
<path d="M7072 6089 c-16 -35 -28 -65 -27 -67 5 -6 135 11 135 18 0 3 -18 30
-40 60 l-40 53 -28 -64z"/>
<path d="M6180 6115 c0 -28 3 -30 32 -14 21 11 21 12 3 25 -27 20 -35 17 -35
-11z"/>
<path d="M6290 6126 c0 -8 4 -17 9 -20 11 -7 33 18 24 27 -12 12 -33 7 -33 -7z"/>
<path d="M6406 6131 c-7 -11 18 -33 27 -24 4 3 7 12 7 20 0 15 -26 18 -34 4z"/>
<path d="M6515 6126 c-18 -13 -18 -14 3 -25 29 -16 32 -14 32 14 0 28 -8 31
-35 11z"/>
<path d="M5093 6047 c-39 -45 -71 -83 -69 -84 6 -7 208 -44 213 -40 6 6 -59
207 -67 206 -3 0 -37 -37 -77 -82z"/>
<path d="M6350 6110 c9 -18 8 -20 -16 -20 -23 0 -25 -3 -20 -26 7 -25 5 -25
-25 -19 -31 7 -31 7 -24 -25 6 -26 4 -32 -6 -28 -46 17 -59 19 -59 6 0 -23 12
-58 19 -58 8 0 112 104 133 132 12 16 17 13 53 -30 44 -53 103 -107 110 -100
3 2 8 20 11 38 6 26 4 32 -7 28 -59 -22 -61 -22 -54 12 7 32 7 32 -24 25 -30
-6 -32 -6 -25 19 5 23 3 26 -20 26 -24 0 -25 2 -16 20 9 18 8 20 -15 20 -23 0
-24 -2 -15 -20z"/>
<path d="M7521 6029 c-18 -55 -31 -103 -28 -106 5 -4 207 33 213 40 3 3 -139
165 -146 166 -3 1 -21 -44 -39 -100z"/>
<path d="M5728 6071 c-16 -27 -28 -52 -28 -55 0 -3 27 -6 60 -6 33 0 60 2 60
5 0 5 -60 105 -63 105 -1 0 -14 -22 -29 -49z"/>
<path d="M6120 6091 c0 -24 3 -28 20 -24 30 8 35 22 14 38 -28 21 -34 18 -34
-14z"/>
<path d="M6576 6105 c-21 -16 -16 -30 14 -38 17 -4 20 0 20 24 0 32 -6 35 -34
14z"/>
<path d="M6941 6071 c-17 -28 -31 -53 -31 -56 0 -3 27 -5 60 -5 33 0 60 3 60
8 0 4 -13 29 -29 55 l-28 49 -32 -51z"/>
<path d="M6046 6087 c-11 -43 -8 -50 22 -42 42 10 45 19 13 43 l-29 21 -6 -22z"/>
<path d="M6241 6103 c0 -4 4 -16 7 -26 7 -16 10 -16 27 -3 11 8 18 16 15 19
-11 10 -50 18 -49 10z"/>
<path d="M6458 6103 c-24 -6 -23 -20 2 -33 12 -6 20 -7 20 -1 0 5 3 16 6 25 6
16 3 17 -28 9z"/>
<path d="M6645 6085 l-29 -24 28 -10 c15 -6 32 -11 37 -11 10 0 11 27 1 52 -6
14 -10 14 -37 -7z"/>
<path d="M3609 5945 c-96 -87 -175 -161 -177 -166 -3 -7 449 -159 456 -153 5
3 -89 446 -98 463 -5 9 -56 -31 -181 -144z"/>
<path d="M5850 6063 c-8 -21 -16 -41 -18 -45 -4 -9 43 -9 76 0 l22 7 -25 38
c-14 20 -29 37 -33 37 -5 0 -14 -17 -22 -37z"/>
<path d="M5952 6063 c-6 -20 -10 -39 -8 -41 9 -8 76 11 76 22 0 12 -41 56 -51
56 -3 0 -11 -17 -17 -37z"/>
<path d="M6732 6077 c-12 -13 -22 -28 -22 -34 0 -10 68 -29 76 -21 5 6 -18 78
-26 78 -4 0 -16 -10 -28 -23z"/>
<path d="M6825 6063 l-25 -38 22 -7 c33 -9 80 -9 76 0 -2 4 -10 24 -18 45 -8
20 -17 37 -22 37 -4 0 -19 -17 -33 -37z"/>
<path d="M8936 6083 c-12 -39 -96 -447 -94 -453 4 -9 460 140 456 149 -3 9
-347 321 -353 321 -2 0 -6 -8 -9 -17z"/>
<path d="M6190 6049 c0 -32 6 -35 34 -14 21 16 16 30 -14 38 -17 4 -20 0 -20
-24z"/>
<path d="M6513 6069 c-29 -10 -29 -20 -2 -37 25 -16 32 -11 27 21 -3 21 -6 23
-25 16z"/>
<path d="M5316 5993 c-26 -36 -50 -72 -52 -78 -3 -8 25 -15 91 -21 64 -6 94
-6 91 1 -22 58 -71 165 -76 165 -3 0 -27 -30 -54 -67z"/>
<path d="M7321 5983 c-18 -43 -35 -83 -37 -88 -3 -7 27 -7 91 -1 52 5 95 12
95 15 0 9 -100 145 -109 149 -4 1 -22 -33 -40 -75z"/>
<path d="M6120 6015 c0 -39 6 -42 39 -19 l24 17 -24 18 c-34 26 -39 24 -39
-16z"/>
<path d="M6571 6031 l-24 -18 24 -17 c33 -23 39 -20 39 19 0 40 -5 42 -39 16z"/>
<path d="M4657 5934 c-54 -60 -97 -113 -96 -119 1 -11 289 -76 289 -65 0 3
-22 70 -48 149 l-48 144 -97 -109z"/>
<path d="M6340 6029 c0 -6 5 -19 10 -30 10 -17 7 -19 -30 -19 l-41 0 17 -32
17 -33 26 32 25 32 27 -32 26 -31 17 32 17 32 -41 0 c-37 0 -40 2 -30 19 16
31 12 41 -15 41 -14 0 -25 -5 -25 -11z"/>
<path d="M7927 5897 c-26 -79 -47 -145 -47 -148 0 -3 66 9 148 26 81 17 147
34 147 38 0 7 -167 198 -189 216 -9 8 -23 -25 -59 -132z"/>
<path d="M6036 6007 c-8 -31 -7 -67 2 -67 4 1 22 9 40 19 l34 17 -35 27 -35
26 -6 -22z"/>
<path d="M6652 6002 l-33 -28 36 -17 c19 -9 38 -17 40 -17 7 0 5 52 -3 72 -6
15 -11 13 -40 -10z"/>
<path d="M5522 5988 c-10 -18 -29 -50 -41 -70 l-23 -38 86 0 85 0 -40 70 c-23
39 -42 70 -44 70 -2 0 -12 -15 -23 -32z"/>
<path d="M7142 5952 l-41 -72 85 0 84 0 -27 48 c-61 107 -54 105 -101 24z"/>
<path d="M5931 5963 c-5 -26 -8 -49 -6 -51 4 -5 77 18 87 27 4 3 -11 21 -32
38 l-38 33 -11 -47z"/>
<path d="M6745 5975 l-40 -34 28 -10 c15 -6 39 -14 52 -17 24 -6 25 -4 18 27
-13 69 -14 70 -58 34z"/>
<path d="M2665 5809 c-115 -104 -225 -205 -244 -223 l-33 -34 93 -30 c52 -17
192 -63 312 -102 121 -39 221 -70 223 -67 6 5 -129 647 -136 646 -3 0 -99 -85
-215 -190z"/>
<path d="M5666 5939 c-14 -33 -26 -62 -26 -65 0 -5 106 5 128 12 9 3 1 21 -25
59 -21 30 -41 54 -44 55 -4 0 -18 -27 -33 -61z"/>
<path d="M5825 5989 c-11 -32 -35 -102 -35 -104 0 -5 111 20 113 25 1 4 -15
26 -35 49 -26 30 -39 40 -43 30z"/>
<path d="M6857 5954 c-26 -30 -34 -45 -25 -48 18 -6 108 -24 108 -22 0 9 -34
102 -39 108 -3 3 -23 -13 -44 -38z"/>
<path d="M6987 5945 c-26 -38 -34 -56 -25 -59 22 -7 128 -17 128 -12 0 12 -53
126 -59 126 -3 -1 -23 -25 -44 -55z"/>
<path d="M9828 5918 c-9 -46 -40 -190 -68 -322 -28 -131 -49 -241 -46 -243 2
-3 102 28 223 67 120 39 260 85 311 102 79 25 91 32 81 45 -16 18 -469 427
-478 431 -4 1 -14 -35 -23 -80z"/>
<path d="M6126 5928 c4 -24 8 -44 8 -45 3 -4 66 42 66 48 0 5 -65 39 -75 39
-3 0 -2 -19 1 -42z"/>
<path d="M6563 5953 c-18 -9 -33 -19 -33 -22 0 -6 63 -52 66 -48 6 9 13 87 7
86 -5 0 -23 -8 -40 -16z"/>
<path d="M4936 5835 c-42 -58 -70 -105 -63 -105 6 -1 66 -7 132 -14 66 -8 121
-13 122 -12 5 5 -101 236 -108 236 -4 0 -41 -47 -83 -105z"/>
<path d="M7652 5823 c-28 -64 -51 -118 -49 -119 1 -1 56 4 122 12 66 7 126 13
132 14 13 0 -133 210 -146 210 -4 0 -30 -53 -59 -117z"/>
<path d="M6030 5881 c0 -28 3 -51 6 -51 11 0 84 43 84 50 0 5 -33 24 -82 48
-5 2 -8 -19 -8 -47z"/>
<path d="M6220 5921 c0 -17 22 -71 29 -71 16 0 54 50 45 59 -13 12 -74 22 -74
12z"/>
<path d="M6470 5923 c-40 -7 -46 -20 -20 -48 30 -32 36 -32 49 6 13 37 14 50
4 48 -5 -1 -19 -4 -33 -6z"/>
<path d="M6648 5906 c-21 -11 -38 -24 -38 -27 0 -6 74 -49 84 -49 3 0 6 23 6
50 0 28 -3 50 -7 49 -5 -1 -25 -11 -45 -23z"/>
<path d="M4052 5766 c-73 -80 -133 -150 -134 -157 -2 -8 65 -26 197 -54 110
-24 201 -42 202 -41 4 3 -119 381 -127 389 -4 4 -66 -57 -138 -137z"/>
<path d="M6341 5869 l21 -42 -51 5 c-28 3 -51 1 -51 -4 0 -5 7 -25 15 -45 8
-20 14 -38 12 -40 -2 -2 -28 2 -56 8 -29 6 -55 9 -58 6 -7 -7 26 -107 35 -106
7 1 107 114 141 158 l18 24 25 -36 c23 -34 125 -147 133 -147 7 0 37 101 32
107 -3 3 -29 0 -58 -6 -28 -6 -54 -10 -56 -8 -2 2 4 20 12 40 8 20 15 40 15
45 0 5 -23 7 -51 4 l-51 -5 21 42 21 41 -45 0 -45 0 21 -41z"/>
<path d="M8534 5897 c-12 -33 -123 -382 -121 -383 1 -1 92 17 202 41 132 28
199 46 197 54 -2 12 -260 301 -268 301 -3 0 -7 -6 -10 -13z"/>
<path d="M5917 5842 c-3 -31 -4 -58 -2 -60 7 -7 105 41 99 49 -3 5 -24 22 -48
38 l-43 30 -6 -57z"/>
<path d="M6755 5863 l-50 -37 53 -24 c29 -13 55 -22 58 -20 2 3 0 30 -4 61
l-7 56 -50 -36z"/>
<path d="M5197 5793 l-57 -98 112 -3 c61 -1 112 -1 115 1 3 4 -91 172 -107
190 -4 4 -32 -36 -63 -90z"/>
<path d="M7416 5794 c-31 -53 -55 -99 -52 -101 2 -2 53 -2 115 -1 l111 3 -54
93 c-29 51 -55 95 -58 98 -3 2 -31 -39 -62 -92z"/>
<path d="M5778 5808 c-8 -35 -13 -66 -11 -70 3 -5 120 28 131 38 4 3 -86 88
-98 92 -4 2 -14 -25 -22 -60z"/>
<path d="M6140 5858 c0 -7 5 -30 11 -52 l11 -38 34 33 c19 18 34 36 34 39 0 6
-67 30 -84 30 -3 0 -6 -6 -6 -12z"/>
<path d="M6533 5858 c-18 -6 -33 -14 -33 -17 0 -4 15 -22 34 -40 l34 -33 11
38 c19 69 16 72 -46 52z"/>
<path d="M6877 5824 c-27 -26 -47 -47 -45 -49 12 -9 128 -42 131 -37 5 11 -24
132 -31 132 -4 0 -29 -21 -55 -46z"/>
<path d="M1324 5565 c-181 -163 -330 -299 -332 -304 -1 -4 179 -66 400 -138
495 -161 448 -147 448 -130 0 18 -179 859 -184 864 -2 2 -151 -130 -332 -292z"/>
<path d="M5421 5778 c-21 -46 -37 -85 -35 -87 6 -7 184 12 184 20 0 9 -100
149 -107 149 -2 0 -21 -37 -42 -82z"/>
<path d="M5638 5854 c-10 -17 -50 -145 -47 -149 6 -5 159 27 159 34 -1 14
-108 123 -112 115z"/>
<path d="M7031 5799 c-29 -33 -52 -62 -50 -63 7 -6 154 -35 157 -31 5 5 -38
137 -47 147 -4 4 -31 -19 -60 -53z"/>
<path d="M7212 5790 c-29 -39 -52 -74 -52 -79 0 -8 101 -21 162 -21 l27 0 -35
78 c-20 42 -39 81 -43 85 -4 4 -31 -24 -59 -63z"/>
<path d="M11056 5788 c-96 -442 -171 -808 -164 -808 8 0 179 55 631 203 119
39 216 75 215 79 -3 7 -658 598 -663 598 -2 0 -10 -33 -19 -72z"/>
<path d="M6043 5764 c3 -31 8 -58 10 -61 3 -2 26 10 51 28 25 18 43 36 39 40
-5 4 -30 16 -57 28 l-49 21 6 -56z"/>
<path d="M6638 5796 c-26 -12 -49 -24 -50 -28 -3 -6 76 -68 86 -68 7 0 19 85
14 102 -2 12 -11 11 -50 -6z"/>
<path d="M4447 5656 c-53 -74 -100 -141 -102 -149 -5 -10 30 -17 166 -31 94
-10 173 -15 176 -12 4 3 -135 326 -141 326 0 0 -45 -61 -99 -134z"/>
<path d="M8110 5630 c-39 -89 -70 -164 -67 -166 7 -8 347 28 347 36 0 6 -191
275 -204 288 -2 1 -36 -70 -76 -158z"/>
<path d="M5910 5695 c0 -37 4 -65 10 -65 11 0 120 59 120 65 0 6 -109 65 -120
65 -6 0 -10 -28 -10 -65z"/>
<path d="M6747 5731 c-26 -15 -50 -30 -53 -33 -6 -6 100 -68 116 -68 6 0 10
28 10 65 0 75 -3 77 -73 36z"/>
<path d="M3230 5534 c-102 -113 -184 -209 -183 -212 2 -7 544 -124 549 -119 5
5 -170 537 -176 537 -3 0 -89 -93 -190 -206z"/>
<path d="M6310 5729 c0 -10 49 -99 55 -99 6 0 55 89 55 99 0 7 -23 11 -55 11
-32 0 -55 -4 -55 -11z"/>
<path d="M9218 5473 c-48 -147 -86 -269 -84 -270 5 -5 547 112 549 119 2 7
-364 418 -373 418 -3 0 -45 -120 -92 -267z"/>
<path d="M5766 5698 c-12 -57 -17 -138 -8 -138 11 0 142 59 142 64 0 4 -95 76
-117 90 -8 4 -14 -1 -17 -16z"/>
<path d="M6892 5674 c-34 -25 -62 -48 -62 -50 0 -5 130 -64 142 -64 9 0 0 127
-11 148 -5 9 -25 -1 -69 -34z"/>
<path d="M4819 5638 c-23 -40 -57 -99 -75 -131 -19 -32 -34 -60 -34 -63 0 -2
70 -4 155 -4 85 0 155 2 155 4 0 7 -151 266 -155 266 -2 0 -23 -33 -46 -72z"/>
<path d="M7786 5580 c-42 -72 -76 -133 -76 -136 0 -2 70 -4 155 -4 85 0 155 2
155 4 0 6 -140 250 -150 259 -4 5 -42 -51 -84 -123z"/>
<path d="M5575 5613 c-9 -43 -19 -86 -21 -95 -3 -10 -2 -18 3 -18 9 0 166 51
172 56 6 6 -18 31 -79 84 l-58 50 -17 -77z"/>
<path d="M6064 5657 c4 -17 9 -49 13 -69 3 -21 8 -38 12 -38 10 1 105 89 100
93 -2 2 -33 14 -68 25 l-63 21 6 -32z"/>
<path d="M6605 5667 c-33 -11 -62 -21 -64 -24 -5 -4 90 -92 100 -93 6 0 32
131 27 135 -2 1 -30 -7 -63 -18z"/>
<path d="M7065 5626 c-39 -35 -68 -66 -65 -69 8 -8 171 -59 175 -55 4 3 -33
179 -38 185 -2 1 -34 -27 -72 -61z"/>
<path d="M5090 5560 c-29 -66 -51 -122 -49 -124 4 -3 251 23 256 27 1 2 -33
51 -76 110 l-78 107 -53 -120z"/>
<path d="M7508 5573 c-42 -59 -76 -109 -74 -110 4 -5 251 -30 255 -27 3 3 -99
244 -103 244 -1 0 -36 -48 -78 -107z"/>
<path d="M5352 5573 c-18 -55 -32 -105 -32 -110 0 -8 208 31 217 40 1 2 -33
40 -76 87 l-77 84 -32 -101z"/>
<path d="M7267 5588 c-42 -45 -75 -84 -74 -85 10 -9 217 -48 217 -40 0 11 -60
200 -64 205 -2 1 -38 -34 -79 -80z"/>
<path d="M6236 5583 c14 -32 29 -61 33 -66 4 -4 25 18 46 48 21 31 36 57 34
59 -2 2 -34 6 -71 10 l-68 7 26 -58z"/>
<path d="M6428 5633 c-27 -2 -48 -7 -48 -10 0 -16 74 -113 81 -106 4 5 19 34
33 66 l26 57 -23 -2 c-12 -1 -43 -3 -69 -5z"/>
<path d="M5927 5548 c10 -105 9 -104 80 -56 35 24 63 46 63 50 0 6 -126 68
-140 68 -5 0 -6 -28 -3 -62z"/>
<path d="M6725 5579 c-33 -16 -61 -32 -62 -36 -2 -7 95 -81 119 -91 7 -3 13
24 22 111 7 56 4 57 -79 16z"/>
<path d="M3761 5378 c-77 -106 -141 -195 -141 -198 0 -6 479 -57 484 -52 4 3
-183 424 -194 435 -4 5 -71 -78 -149 -185z"/>
<path d="M8799 5524 c-12 -27 -57 -126 -99 -221 -43 -95 -76 -174 -74 -175 5
-5 484 46 484 52 0 6 -263 367 -279 383 -8 8 -17 -3 -32 -39z"/>
<path d="M5760 5445 c0 -53 3 -94 8 -92 80 45 152 89 152 95 0 5 -116 74 -152
90 -5 2 -8 -40 -8 -93z"/>
<path d="M6100 5532 c0 -11 40 -145 45 -150 3 -4 109 106 113 117 1 4 -28 13
-65 21 -38 7 -74 15 -80 18 -7 2 -13 0 -13 -6z"/>
<path d="M6542 5522 c-40 -9 -71 -19 -70 -23 4 -11 110 -121 113 -117 5 5 45
139 45 149 0 11 4 11 -88 -9z"/>
<path d="M6890 5499 c-36 -21 -69 -41 -75 -43 -12 -6 19 -30 97 -74 l58 -33 0
95 c0 53 -3 96 -7 95 -5 0 -37 -18 -73 -40z"/>
<path d="M2125 5229 c-137 -154 -251 -284 -253 -289 -2 -6 3 -10 12 -10 9 0
175 -34 368 -75 194 -42 358 -74 364 -73 11 3 -222 728 -234 727 -4 0 -119
-126 -257 -280z"/>
<path d="M10222 5148 c-68 -209 -114 -364 -108 -366 6 -1 170 31 364 73 193
41 359 75 368 75 9 0 14 4 12 10 -4 14 -502 568 -510 569 -4 1 -61 -162 -126
-361z"/>
<path d="M6298 5468 c10 -18 29 -51 42 -72 l24 -39 15 23 c9 13 28 45 44 72
l27 48 -86 0 -86 0 20 -32z"/>
<path d="M5559 5478 c-4 -9 -25 -214 -23 -217 4 -5 203 82 204 89 0 9 -178
135 -181 128z"/>
<path d="M7079 5419 c-46 -33 -85 -63 -86 -67 -3 -8 196 -97 201 -91 5 6 -18
207 -25 213 -3 3 -44 -21 -90 -55z"/>
<path d="M4232 5296 c-56 -98 -102 -180 -102 -182 0 -2 94 -4 209 -4 l210 0
-92 158 c-51 88 -99 169 -108 182 -15 22 -17 19 -117 -154z"/>
<path d="M8334 5374 c-31 -55 -79 -136 -105 -181 l-49 -83 210 0 c116 0 210 2
210 4 0 6 -191 339 -201 350 -4 4 -33 -36 -65 -90z"/>
<path d="M5315 5418 c-27 -114 -51 -238 -46 -238 3 0 55 16 116 36 60 19 116
37 123 40 12 4 -19 36 -145 148 -42 37 -42 37 -48 14z"/>
<path d="M5950 5427 c1 -32 36 -166 44 -169 9 -3 134 102 135 114 1 3 -39 20
-89 36 -58 20 -90 26 -90 19z"/>
<path d="M6688 5408 c-49 -16 -88 -33 -87 -36 1 -15 132 -122 139 -115 8 9 44
173 38 177 -1 2 -42 -10 -90 -26z"/>
<path d="M7312 5354 c-51 -46 -92 -87 -93 -90 0 -6 225 -84 242 -84 6 0 -45
248 -53 255 -2 2 -45 -34 -96 -81z"/>
<path d="M4686 5365 c-15 -33 -48 -106 -73 -163 -25 -56 -44 -104 -42 -106 2
-2 81 4 174 15 94 10 173 19 178 19 6 0 -111 166 -184 261 l-27 34 -26 -60z"/>
<path d="M7908 5278 c-58 -79 -104 -144 -103 -146 3 -4 350 -40 354 -36 4 4
-127 304 -139 317 -4 5 -55 -56 -112 -135z"/>
<path d="M4988 5264 c-44 -139 -45 -146 -25 -140 12 2 82 17 155 32 132 27
132 27 115 48 -55 65 -186 206 -192 206 -3 0 -27 -66 -53 -146z"/>
<path d="M7599 5317 c-46 -50 -92 -101 -102 -113 -17 -21 -17 -21 115 -48 73
-15 143 -30 155 -32 20 -6 19 1 -25 140 -26 80 -50 146 -53 146 -4 0 -44 -42
-90 -93z"/>
<path d="M6162 5358 c27 -68 73 -158 79 -156 5 2 31 34 59 73 35 48 46 71 37
76 -6 4 -50 10 -96 14 -68 5 -83 4 -79 -7z"/>
<path d="M6448 5361 c-31 -3 -59 -9 -62 -12 -6 -6 89 -142 103 -147 6 -2 52
87 78 156 6 13 -18 14 -119 3z"/>
<path d="M5775 5238 c11 -139 6 -136 107 -65 48 34 87 65 88 68 0 7 -179 89
-194 89 -4 0 -5 -42 -1 -92z"/>
<path d="M6848 5288 c-49 -23 -88 -44 -88 -47 1 -3 40 -34 88 -68 101 -71 96
-74 107 65 6 74 5 92 -6 91 -8 0 -53 -19 -101 -41z"/>
<path d="M2842 5014 c-106 -146 -192 -267 -190 -268 2 -2 145 -17 318 -35 173
-18 321 -34 328 -36 6 -3 12 -1 12 3 0 12 -264 602 -270 602 -3 0 -92 -120
-198 -266z"/>
<path d="M9552 4983 c-73 -164 -132 -302 -132 -306 0 -5 3 -6 8 -4 4 3 151 19
327 37 176 18 321 34 323 36 4 3 -377 528 -387 532 -3 1 -66 -132 -139 -295z"/>
<path d="M5540 5110 c0 -71 3 -130 6 -130 10 0 224 124 224 130 0 6 -213 130
-223 130 -4 0 -7 -58 -7 -130z"/>
<path d="M6003 5227 c2 -7 17 -52 32 -102 15 -49 30 -93 34 -98 4 -4 40 29 80
74 39 45 70 84 67 86 -12 13 -217 51 -213 40z"/>
<path d="M6622 5215 c-56 -12 -105 -25 -108 -28 -3 -2 28 -41 67 -86 40 -45
76 -78 80 -74 7 8 70 206 66 209 -1 0 -48 -9 -105 -21z"/>
<path d="M7068 5177 c-59 -34 -108 -64 -108 -67 0 -6 214 -130 224 -130 3 0 6
59 6 130 0 72 -3 130 -7 130 -5 0 -56 -28 -115 -63z"/>
<path d="M628 4812 c-311 -346 -345 -388 -325 -394 12 -3 198 -43 412 -88 215
-46 436 -92 493 -105 56 -12 102 -20 102 -17 0 4 -22 74 -49 157 -27 82 -99
304 -161 493 -61 188 -114 342 -118 342 -4 -1 -163 -175 -354 -388z"/>
<path d="M11630 4858 c-61 -189 -134 -411 -161 -493 -27 -83 -49 -153 -49
-157 0 -3 46 5 103 17 56 13 278 59 492 105 215 45 400 85 412 88 20 6 -14 47
-324 392 -190 212 -350 386 -354 388 -4 2 -58 -151 -119 -340z"/>
<path d="M6252 5182 c8 -19 110 -192 113 -192 3 0 105 173 113 192 2 4 -49 8
-113 8 -64 0 -115 -4 -113 -8z"/>
<path d="M5261 5048 c-7 -62 -14 -132 -18 -155 l-5 -42 123 55 c68 31 132 58
142 61 9 3 17 9 17 12 0 7 -235 181 -244 181 -2 0 -9 -51 -15 -112z"/>
<path d="M7330 5074 c-63 -46 -116 -88 -118 -93 -2 -5 5 -11 15 -14 10 -3 74
-30 142 -61 l123 -55 -5 42 c-4 23 -11 93 -18 155 -6 61 -14 112 -18 112 -3
-1 -58 -39 -121 -86z"/>
<path d="M3481 4906 c-77 -135 -141 -247 -141 -250 0 -4 129 -6 286 -6 l285 0
-32 58 c-18 31 -83 144 -145 250 l-112 193 -141 -245z"/>
<path d="M8963 4902 l-142 -247 281 -3 c155 -1 283 0 285 2 4 4 -275 497 -280
496 -1 0 -66 -112 -144 -248z"/>
<path d="M4937 5033 c-39 -172 -59 -275 -55 -279 7 -6 338 100 335 108 -2 7
-257 238 -262 238 -2 0 -10 -30 -18 -67z"/>
<path d="M5803 5079 c4 -13 17 -72 29 -132 12 -59 25 -106 29 -105 13 5 187
162 188 170 1 3 -50 23 -111 44 -62 20 -119 39 -127 42 -11 4 -13 -1 -8 -19z"/>
<path d="M6798 5058 c-65 -22 -118 -43 -117 -46 1 -8 176 -165 188 -170 4 -1
17 46 29 105 12 60 25 118 28 131 4 12 2 22 -2 21 -5 0 -62 -19 -126 -41z"/>
<path d="M7645 4985 c-72 -64 -131 -119 -132 -123 -3 -8 328 -114 335 -108 4
5 -55 296 -67 329 -6 15 -28 -1 -136 -98z"/>
<path d="M4111 5039 c-11 -24 -56 -125 -100 -224 -44 -99 -79 -181 -78 -182 3
-2 481 48 485 52 3 2 -258 366 -279 389 -5 6 -17 -9 -28 -35z"/>
<path d="M8452 4884 c-79 -108 -142 -198 -140 -199 4 -4 482 -54 485 -52 3 3
-188 431 -196 439 -4 4 -71 -80 -149 -188z"/>
<path d="M4508 4874 c-36 -109 -64 -200 -63 -202 5 -6 405 83 405 90 0 6 -185
214 -250 282 l-28 29 -64 -199z"/>
<path d="M8016 4919 c-75 -83 -136 -154 -136 -158 0 -5 117 -32 387 -88 20 -5
18 7 -42 192 -35 108 -65 199 -68 201 -2 3 -66 -63 -141 -147z"/>
<path d="M6090 5002 c0 -12 89 -214 99 -225 5 -5 42 38 84 95 48 65 71 105 63
109 -6 4 -45 9 -86 13 -41 4 -94 9 -117 12 -26 4 -43 2 -43 -4z"/>
<path d="M6493 4996 c-56 -6 -104 -13 -106 -16 -3 -3 29 -51 70 -108 42 -57
79 -100 84 -95 9 10 99 212 99 224 0 11 -12 10 -147 -5z"/>
<path d="M5569 4810 c8 -82 18 -150 23 -150 5 0 230 159 246 174 3 3 -267 126
-277 126 -3 0 0 -67 8 -150z"/>
<path d="M7022 4898 c-73 -33 -131 -62 -130 -63 16 -16 241 -175 246 -175 5 0
15 68 23 150 10 99 11 150 4 149 -5 0 -70 -28 -143 -61z"/>
<path d="M1603 4528 c-145 -199 -262 -363 -260 -364 5 -5 871 -95 883 -92 11
3 -343 818 -356 818 -3 0 -123 -163 -267 -362z"/>
<path d="M10673 4483 c-111 -250 -176 -409 -169 -411 12 -3 878 87 883 92 4 4
-521 725 -527 726 -3 0 -87 -183 -187 -407z"/>
<path d="M5250 4661 c0 -100 3 -181 8 -181 4 0 70 36 147 81 77 44 146 84 153
88 9 5 -29 32 -110 78 -68 39 -140 80 -160 93 l-38 22 0 -181z"/>
<path d="M7322 4750 c-85 -49 -155 -90 -157 -92 -2 -2 66 -43 151 -92 85 -49
157 -87 159 -84 3 3 4 84 3 181 l-3 175 -153 -88z"/>
<path d="M5870 4829 c0 -2 22 -71 48 -153 l48 -149 102 113 c56 62 102 116
102 119 0 3 -61 19 -136 34 -74 16 -142 31 -150 34 -8 3 -14 4 -14 2z"/>
<path d="M6703 4796 c-79 -17 -143 -34 -143 -38 0 -3 46 -57 102 -119 l102
-112 48 149 c26 82 48 150 48 152 0 3 8 4 -157 -32z"/>
<path d="M6212 4752 c8 -19 150 -262 153 -262 3 0 145 243 153 262 2 4 -67 8
-153 8 -86 0 -155 -4 -153 -8z"/>
<path d="M4885 4697 c-3 -17 -13 -112 -23 -210 -16 -160 -17 -177 -3 -172 51
19 370 161 370 165 0 3 -28 25 -62 49 -34 25 -110 80 -169 123 l-107 78 -6
-33z"/>
<path d="M7668 4606 c-92 -67 -167 -123 -167 -126 0 -6 380 -173 383 -168 4 5
-40 408 -45 412 -2 2 -79 -51 -171 -118z"/>
<path d="M2465 4379 c-104 -181 -191 -334 -193 -339 -2 -6 137 -10 382 -10
215 0 386 4 386 9 0 8 -366 648 -379 663 -3 4 -91 -142 -196 -323z"/>
<path d="M9881 4380 c-105 -183 -191 -336 -191 -341 0 -5 161 -9 385 -9 212 0
385 2 385 6 0 4 -377 662 -385 672 -1 2 -89 -146 -194 -328z"/>
<path d="M4441 4588 c-6 -29 -29 -134 -50 -233 -21 -99 -37 -182 -35 -184 5
-6 464 141 463 148 -1 8 -346 315 -358 319 -5 2 -14 -21 -20 -50z"/>
<path d="M5602 4628 c3 -7 20 -86 39 -175 19 -90 36 -163 39 -163 11 0 255
227 253 235 -1 5 -64 30 -140 56 -178 59 -197 64 -191 47z"/>
<path d="M6957 4587 c-87 -29 -159 -56 -160 -62 -2 -8 242 -235 253 -235 3 0
20 73 39 163 19 89 36 168 39 175 6 18 3 17 -171 -41z"/>
<path d="M8088 4482 c-97 -86 -177 -159 -177 -163 -1 -7 458 -154 462 -148 2
2 -13 83 -33 179 -21 96 -43 201 -49 233 -7 31 -15 57 -19 57 -4 0 -86 -71
-184 -158z"/>
<path d="M3208 4315 c-74 -168 -133 -305 -129 -305 14 -1 618 62 638 66 20 4
3 31 -164 262 -102 141 -191 263 -197 269 -9 10 -44 -60 -148 -292z"/>
<path d="M9188 4353 c-154 -211 -192 -269 -179 -275 9 -3 138 -18 286 -33 149
-15 291 -29 317 -32 l47 -6 -136 304 c-74 167 -136 305 -138 307 -1 1 -90
-118 -197 -265z"/>
<path d="M3937 4593 c-12 -23 -169 -524 -165 -528 2 -3 119 20 259 50 140 30
262 55 272 55 9 0 17 4 17 10 0 9 -367 420 -375 420 -2 0 -6 -3 -8 -7z"/>
<path d="M8596 4396 c-102 -114 -186 -211 -186 -216 0 -6 8 -10 18 -10 9 0
131 -25 271 -55 140 -30 257 -53 259 -50 5 5 -157 516 -168 528 -4 5 -91 -84
-194 -197z"/>
<path d="M5990 4513 c0 -17 135 -312 143 -313 9 -1 207 265 207 278 0 5 -60
14 -132 21 -73 7 -152 15 -175 18 -24 3 -43 2 -43 -4z"/>
<path d="M6538 4502 c-82 -9 -148 -19 -148 -23 0 -12 197 -280 206 -280 7 -1
144 297 144 313 0 10 -19 9 -202 -10z"/>
<path d="M5270 4442 c0 -30 41 -396 45 -400 1 -2 78 52 170 119 91 67 163 125
158 129 -4 4 -82 40 -173 80 -91 40 -173 77 -182 82 -14 7 -18 5 -18 -10z"/>
<path d="M7273 4376 c-100 -45 -184 -84 -188 -87 -3 -4 69 -62 161 -128 91
-67 168 -121 170 -119 5 5 46 397 42 406 -2 5 -85 -28 -185 -72z"/>
<path d="M4860 4046 c0 -135 2 -246 6 -246 10 0 414 235 414 241 0 4 -80 53
-177 109 -98 56 -193 111 -210 122 l-33 20 0 -246z"/>
<path d="M7660 4169 c-112 -65 -206 -122 -207 -126 -3 -9 406 -247 413 -240 2
2 3 112 2 244 l-3 241 -205 -119z"/>
<path d="M5700 4263 c0 -5 29 -95 63 -202 l63 -194 143 159 c79 87 139 160
135 161 -19 6 -384 83 -394 83 -5 0 -10 -3 -10 -7z"/>
<path d="M6815 4229 c-99 -22 -184 -40 -189 -42 -4 -1 56 -74 135 -161 l142
-158 63 193 c35 107 64 197 64 202 0 11 -25 8 -215 -34z"/>
<path d="M6253 4005 c56 -96 106 -176 111 -178 4 -1 55 78 111 176 l104 177
-214 0 -214 0 102 -175z"/>
<path d="M4366 4118 c-8 -37 -58 -539 -54 -543 3 -3 504 218 514 227 3 3 -93
77 -213 163 -120 87 -223 162 -230 167 -9 7 -14 3 -17 -14z"/>
<path d="M8131 3976 c-123 -89 -222 -166 -221 -172 4 -9 502 -234 508 -229 6
5 -49 528 -56 547 -6 14 -48 -13 -231 -146z"/>
<path d="M1086 3659 c-142 -247 -256 -452 -254 -455 3 -2 239 -3 525 -2 l521
3 -261 453 c-144 248 -264 452 -267 452 -3 -1 -121 -203 -264 -451z"/>
<path d="M11113 3658 l-261 -453 521 -3 c286 -1 522 0 525 2 5 6 -510 905
-518 906 -3 0 -123 -204 -267 -452z"/>
<path d="M3780 4029 c0 -2 -31 -148 -69 -324 -38 -176 -67 -322 -65 -324 1 -1
123 36 271 84 147 48 290 94 316 102 46 15 48 17 30 33 -10 9 -110 99 -223
200 -113 101 -217 195 -232 209 -16 13 -28 23 -28 20z"/>
<path d="M8705 3814 c-132 -119 -244 -219 -248 -223 -5 -5 13 -15 40 -24 26
-8 169 -54 316 -102 148 -48 270 -85 271 -84 4 5 -130 639 -136 644 -2 2 -112
-93 -243 -211z"/>
<path d="M5366 3863 c18 -87 41 -195 50 -240 15 -74 18 -81 33 -70 53 38 349
313 343 318 -6 6 -443 149 -455 149 -2 0 10 -71 29 -157z"/>
<path d="M7157 3947 c-120 -40 -218 -76 -217 -82 3 -15 354 -328 357 -318 1 4
23 105 48 223 25 118 47 223 49 233 2 9 -1 17 -7 16 -7 -1 -110 -33 -230 -72z"/>
<path d="M2272 3974 c-41 -80 -353 -797 -348 -801 6 -7 875 83 883 90 4 4
-480 680 -513 716 -10 11 -14 10 -22 -5z"/>
<path d="M10181 3629 c-144 -198 -260 -363 -258 -366 8 -7 877 -97 883 -90 6
5 -340 794 -355 810 -4 4 -126 -155 -270 -354z"/>
<path d="M2970 3614 c-63 -196 -116 -361 -118 -368 -2 -9 25 -7 100 9 57 12
227 48 378 80 151 32 276 59 278 61 4 3 -511 574 -518 574 -3 0 -57 -161 -120
-356z"/>
<path d="M9376 3684 c-141 -157 -256 -287 -254 -288 2 -2 127 -29 278 -61 151
-32 321 -68 378 -80 56 -12 102 -19 102 -17 0 12 -233 718 -239 724 -4 5 -123
-121 -265 -278z"/>
<path d="M5853 3848 c23 -57 190 -424 195 -430 4 -3 71 82 149 190 78 108 141
197 140 199 -2 2 -467 53 -484 53 -3 0 -3 -6 0 -12z"/>
<path d="M6630 3835 c-113 -12 -213 -24 -223 -26 -13 -3 13 -46 125 -201 79
-108 146 -194 150 -190 5 6 173 374 195 430 6 15 7 15 -247 -13z"/>
<path d="M4885 3733 c3 -21 17 -146 30 -277 14 -132 27 -242 30 -244 5 -5 449
315 453 327 2 7 -494 232 -511 231 -4 0 -5 -17 -2 -37z"/>
<path d="M7577 3658 c-136 -61 -246 -115 -245 -119 4 -12 448 -332 453 -327 3
2 16 112 30 244 13 131 27 256 30 277 4 26 2 37 -7 36 -7 0 -124 -50 -261
-111z"/>
<path d="M4330 3210 c0 -181 2 -330 4 -330 6 0 560 320 568 328 6 6 -549 332
-565 332 -4 0 -7 -148 -7 -330z"/>
<path d="M8103 3377 c-155 -89 -278 -165 -275 -169 8 -8 562 -328 568 -328 2
0 4 149 4 330 0 182 -3 330 -7 330 -5 0 -135 -73 -290 -163z"/>
<path d="M5474 3478 c53 -170 162 -498 166 -497 8 1 382 421 378 424 -5 5
-525 115 -542 115 -13 0 -13 -6 -2 -42z"/>
<path d="M6976 3464 c-138 -29 -254 -55 -259 -57 -9 -3 361 -424 373 -426 4
-1 113 327 166 497 13 41 12 42 -9 41 -12 0 -134 -25 -271 -55z"/>
<path d="M6082 3392 c7 -18 282 -491 284 -489 5 5 284 490 284 494 0 1 -129 3
-286 3 -157 0 -284 -4 -282 -8z"/>
<path d="M3659 3313 c0 -16 -17 -185 -38 -378 -20 -192 -34 -351 -29 -353 11
-5 698 302 695 310 -3 10 -608 448 -618 448 -5 0 -9 -12 -10 -27z"/>
<path d="M8749 3120 c-167 -122 -305 -224 -306 -228 -3 -8 684 -315 695 -310
5 2 -9 161 -29 353 -21 193 -38 362 -38 378 -1 15 -5 27 -10 27 -4 0 -145 -99
-312 -220z"/>
<path d="M9526 2901 c-181 -164 -328 -301 -327 -307 3 -8 842 -287 847 -281 2
3 -185 880 -188 882 -2 2 -151 -131 -332 -294z"/>
<path d="M2865 3168 c-13 -52 -182 -853 -181 -855 3 -3 844 272 851 278 5 6
-636 590 -656 597 -4 2 -11 -7 -14 -20z"/>
<path d="M4972 3169 c2 -13 33 -160 68 -327 47 -220 68 -301 77 -298 26 10
483 430 476 437 -5 3 -143 50 -307 103 -165 54 -304 100 -309 103 -6 3 -8 -4
-5 -18z"/>
<path d="M7749 3186 c-2 -3 -139 -48 -304 -101 -165 -54 -303 -101 -308 -104
-7 -7 450 -427 476 -437 9 -3 31 83 80 317 62 289 70 339 56 325z"/>
<path d="M1877 2943 c-32 -98 -104 -322 -162 -498 -57 -175 -103 -321 -101
-322 7 -8 1017 213 1016 222 -2 11 -681 773 -691 774 -3 1 -31 -79 -62 -176z"/>
<path d="M10440 2733 c-190 -212 -344 -388 -343 -392 2 -6 1014 -223 1019
-218 2 1 -44 147 -101 322 -58 176 -130 400 -162 498 -31 97 -59 177 -62 176
-3 0 -161 -174 -351 -386z"/>
<path d="M5675 2951 c19 -51 261 -591 265 -591 8 0 393 531 388 535 -1 2 -140
17 -308 34 -168 17 -315 33 -328 35 -18 3 -22 0 -17 -13z"/>
<path d="M6730 2932 c-179 -18 -327 -35 -328 -37 -5 -4 380 -535 388 -535 6 0
273 601 268 604 -2 1 -149 -13 -328 -32z"/>
<path d="M4360 2839 c1 -32 79 -751 82 -755 3 -3 596 423 621 446 5 4 -146 76
-335 160 -408 181 -368 165 -368 149z"/>
<path d="M8007 2693 c-192 -86 -345 -159 -340 -163 25 -23 618 -449 621 -446
3 3 81 722 82 754 0 6 -3 12 -7 11 -5 0 -165 -71 -356 -156z"/>
<path d="M3610 2091 c0 -248 3 -451 7 -451 11 0 773 442 773 449 0 5 -745 440
-771 449 -5 2 -9 -175 -9 -447z"/>
<path d="M8723 2317 c-211 -122 -383 -225 -383 -228 0 -7 762 -449 773 -449 4
0 7 203 7 450 0 248 -3 450 -7 449 -5 0 -180 -100 -390 -222z"/>
<path d="M5160 2453 c55 -180 213 -659 220 -666 8 -9 509 539 510 558 1 6 -14
13 -32 17 -128 29 -695 148 -705 148 -8 0 -6 -17 7 -57z"/>
<path d="M7445 2485 c-55 -12 -212 -46 -350 -75 -137 -29 -253 -55 -257 -59
-4 -3 108 -133 249 -289 140 -156 259 -280 263 -275 7 7 166 487 220 666 l18
57 -21 -1 c-12 -1 -67 -12 -122 -24z"/>
<path d="M5980 2337 c0 -10 376 -653 383 -655 7 -3 387 641 387 655 0 2 -173
3 -385 3 -212 0 -385 -1 -385 -3z"/>
<path d="M2691 2058 c-13 -117 -37 -350 -55 -518 -17 -168 -29 -306 -25 -308
12 -5 941 412 942 423 0 9 -820 613 -834 614 -3 1 -16 -95 -28 -211z"/>
<path d="M9591 1967 c-228 -166 -414 -307 -414 -312 1 -11 930 -428 942 -423
4 2 -8 140 -25 308 -18 168 -42 401 -55 518 -12 116 -25 212 -28 211 -3 0
-192 -136 -420 -302z"/>
<path d="M4480 2040 c0 -9 177 -846 183 -864 3 -9 659 577 665 593 2 5 -46 25
-105 44 -59 20 -248 81 -419 136 -170 56 -313 101 -317 101 -4 0 -7 -4 -7 -10z"/>
<path d="M8110 2010 c-63 -21 -249 -82 -413 -135 -164 -54 -297 -101 -295
-106 6 -16 662 -602 665 -593 6 18 183 855 183 864 0 15 -15 12 -140 -30z"/>
<path d="M5423 1747 c63 -145 360 -804 365 -808 4 -4 125 156 269 355 215 296
259 362 245 368 -9 4 -197 25 -417 47 -220 23 -415 43 -433 45 -24 4 -32 1
-29 -7z"/>
<path d="M7275 1754 c-11 -2 -202 -22 -425 -44 -223 -23 -413 -44 -422 -48
-14 -6 30 -72 245 -368 144 -199 265 -359 269 -355 5 4 307 675 365 809 3 6 1
11 -3 11 -5 -1 -18 -3 -29 -5z"/>
<path d="M3655 1568 c3 -18 28 -251 55 -517 28 -267 52 -487 55 -489 7 -7 840
604 835 614 -5 9 -927 424 -943 424 -4 0 -5 -15 -2 -32z"/>
<path d="M8595 1392 c-253 -114 -462 -211 -464 -217 -4 -10 827 -621 834 -613
2 2 27 222 54 488 28 267 53 500 56 518 4 22 2 32 -7 31 -7 0 -220 -94 -473
-207z"/>
<path d="M4710 1143 c0 -3 52 -166 116 -362 64 -196 136 -418 161 -494 24 -76
48 -137 53 -135 9 3 701 771 697 774 -2 2 -228 51 -692 149 -170 36 -316 67
-322 70 -7 2 -13 2 -13 -2z"/>
<path d="M7845 1110 c-93 -21 -323 -70 -510 -109 -187 -40 -341 -74 -342 -75
-3 -3 688 -771 697 -774 4 -2 26 52 48 120 150 455 283 870 280 872 -2 1 -79
-14 -173 -34z"/>
<path d="M5842 911 c5 -16 522 -910 524 -908 6 7 524 908 524 912 0 3 -237 5
-526 5 -327 0 -524 -4 -522 -9z"/>
</g></g>
</svg>
